<svg width="138" height="68" viewBox="0 0 138 68" fill="none" xmlns="http://www.w3.org/2000/svg">
<rect width="137.199" height="67.25" rx="20" fill="#10375B"/>
<rect width="137.199" height="67.25" rx="20" fill="black" fill-opacity="0.2"/>
<path d="M38.6251 56.3699C51.1868 56.3699 61.3701 46.1867 61.3701 33.625C61.3701 21.0633 51.1868 10.88 38.6251 10.88C26.0634 10.88 15.8801 21.0633 15.8801 33.625C15.8801 46.1867 26.0634 56.3699 38.6251 56.3699Z" fill="#E6E6E8"/>
<path d="M39.7915 28.2237L40.2906 31.6138C40.3172 31.8028 40.4944 31.9859 40.6834 32.0184L44.0588 32.612C44.4575 32.6829 44.484 32.8866 44.1238 33.0638L41.0525 34.5847C40.8812 34.6703 40.7631 34.8948 40.7897 35.0838L41.2681 38.4769C41.3242 38.8756 41.1382 38.9671 40.8576 38.6777L38.4626 36.2296C38.3297 36.0937 38.0787 36.0494 37.9074 36.1321L34.8273 37.6353C34.4641 37.8125 34.3223 37.6648 34.5084 37.3075L36.0972 34.2717C36.1858 34.1033 36.1503 33.8523 36.0174 33.7135L33.6372 31.2477C33.3567 30.9582 33.4541 30.7752 33.8498 30.8431L37.2282 31.416C37.4172 31.4485 37.6446 31.3363 37.7332 31.1679L39.3427 28.1439C39.5317 27.7866 39.7354 27.822 39.7945 28.2207L39.7915 28.2237ZM55.2246 26.3307L50.9986 30.5566C50.8982 30.657 50.8421 30.8549 50.8717 30.9966C51.0695 31.9151 51.167 32.8689 51.1493 33.8494C51.0341 40.3787 45.7775 45.8125 39.2541 46.1314C31.697 46.5005 25.5309 40.1838 26.1422 32.5795C26.6088 26.7884 31.9658 21.5112 37.7627 21.1273C39.1035 21.0387 40.4058 21.1568 41.6372 21.464C41.7819 21.4994 41.9857 21.4462 42.092 21.3399L46.2648 17.1672C46.5335 16.8984 46.4745 16.5411 46.123 16.3875C43.6395 15.3067 40.8753 14.7485 37.9695 14.846C28.6878 15.159 20.3747 23.286 19.8668 32.5559C19.2525 43.7364 28.3866 52.9206 39.5494 52.3861C48.7484 51.9461 56.9403 43.763 57.3892 34.564C57.528 31.6936 57.026 28.9531 56.0071 26.4754C55.8595 26.1151 55.4992 26.0502 55.2246 26.3278V26.3307Z" fill="#10375B"/>
<path d="M40.6686 31.2979L40.0573 27.5592C40.0426 27.4677 40.0721 27.3761 40.1371 27.3112L48.1548 19.3938C48.332 19.2166 48.6362 19.3407 48.6391 19.5917L48.71 23.2654C48.71 23.4101 48.8222 23.5282 48.9669 23.543L52.679 23.9092C52.9211 23.9328 53.0245 24.2311 52.8473 24.3994L44.679 32.1307C44.611 32.1927 44.5195 32.2222 44.4309 32.2045L40.896 31.5312C40.7779 31.5076 40.6863 31.416 40.6686 31.2979Z" fill="#A58618"/>
<path d="M77.1443 22.5635L77.8534 23.2683L77.1443 23.9817L76.4352 23.2683L77.1443 22.5635ZM75.6917 22.5635L76.4094 23.2683L75.6917 23.9817L74.9912 23.2683L75.6917 22.5635ZM78.4507 28.9927C78.1785 28.9927 77.9407 28.9569 77.7373 28.8852C77.5339 28.8136 77.3649 28.7033 77.2302 28.5543C77.0955 28.4053 76.9924 28.2148 76.9208 27.9827C76.7517 28.1231 76.5784 28.2277 76.4008 28.2965C76.2231 28.3624 76.0297 28.3953 75.8206 28.3953C75.3565 28.3953 74.9697 28.2692 74.6602 28.0171C74.3508 27.765 74.1961 27.3968 74.1961 26.9126C74.1961 26.6462 74.2548 26.407 74.3723 26.1949C74.4926 25.9829 74.6545 25.7938 74.8579 25.6277C75.0642 25.4615 75.3006 25.3168 75.567 25.1936C75.8364 25.0675 76.12 24.9587 76.418 24.867L76.3879 24.6607L77.3591 24.463L77.7631 27.2006C77.7889 27.3868 77.8591 27.5401 77.9737 27.6604C78.0883 27.7779 78.253 27.8366 78.4679 27.8366H78.5968V28.9927H78.4507ZM76.7016 26.7107C76.7016 26.6705 76.6987 26.6261 76.693 26.5774C76.6873 26.5287 76.6787 26.4786 76.6672 26.427L76.5856 25.9285C76.4108 25.9887 76.2432 26.0546 76.0827 26.1262C75.9223 26.1949 75.7791 26.2694 75.653 26.3497C75.5298 26.427 75.4324 26.5101 75.3608 26.5989C75.2891 26.6877 75.2533 26.7794 75.2533 26.874C75.2533 27.0086 75.3035 27.1146 75.4037 27.192C75.5069 27.2665 75.6415 27.3037 75.8077 27.3037C75.9481 27.3037 76.087 27.2822 76.2246 27.2393C76.3621 27.1963 76.4753 27.1304 76.5641 27.0416C76.6558 26.9528 76.7016 26.8424 76.7016 26.7107ZM78.4206 27.8366H78.7644V28.9927H78.4206V27.8366ZM79.985 29.5686L80.6941 30.2734L79.985 30.9868L79.2759 30.2734L79.985 29.5686ZM78.5324 29.5686L79.2501 30.2734L78.5324 30.9868L77.8319 30.2734L78.5324 29.5686ZM79.3489 28.9927H78.6613V27.8366H79.3489C79.581 27.8366 79.7386 27.7664 79.8217 27.626C79.9076 27.4857 79.9506 27.3066 79.9506 27.0888C79.9506 26.8969 79.9277 26.6877 79.8818 26.4614C79.8388 26.2322 79.7944 26.0073 79.7486 25.7867L80.8015 25.5159C80.8559 25.7766 80.8989 26.0359 80.9304 26.2938C80.962 26.5488 80.9777 26.7923 80.9777 27.0244C80.9777 27.3997 80.9276 27.7363 80.8273 28.0343C80.727 28.3294 80.558 28.5629 80.3202 28.7348C80.0824 28.9067 79.7586 28.9927 79.3489 28.9927ZM81.9404 22.9889H83.0191V26.9513C83.0191 27.2751 83.0678 27.5043 83.1652 27.6389C83.2655 27.7707 83.4574 27.8366 83.7411 27.8366H83.8485V28.9927H83.7411C83.1193 28.9927 82.6638 28.8308 82.3744 28.507C82.0851 28.1833 81.9404 27.6919 81.9404 27.033V22.9889ZM86.4271 23.178L87.1705 23.9215L86.4271 24.665L85.6836 23.9215L86.4271 23.178ZM86.4442 26.3411C86.3039 26.3411 86.1477 26.3482 85.9758 26.3625C85.8068 26.3769 85.6334 26.4055 85.4558 26.4485C85.5876 26.5975 85.7294 26.7465 85.8813 26.8955C86.036 27.0444 86.1678 27.1691 86.2766 27.2693C86.3855 27.3668 86.4399 27.4155 86.4399 27.4155C86.4399 27.4155 86.4729 27.3868 86.5388 27.3295C86.6047 27.2722 86.6878 27.1963 86.7881 27.1017C86.8912 27.0072 87.0001 26.9026 87.1147 26.788C87.2293 26.6734 87.3353 26.5602 87.4327 26.4485C87.2579 26.4055 87.0832 26.3769 86.9084 26.3625C86.7365 26.3482 86.5818 26.3411 86.4442 26.3411ZM86.4399 25.2882C86.6663 25.2882 86.9041 25.3053 87.1533 25.3397C87.4055 25.3741 87.6404 25.4271 87.8582 25.4987C88.0788 25.5675 88.2578 25.6577 88.3954 25.7695C88.5357 25.8812 88.6059 26.0159 88.6059 26.1735C88.6059 26.2479 88.5802 26.3382 88.5286 26.4442C88.4799 26.5502 88.414 26.6634 88.3309 26.7837C88.2478 26.9012 88.1576 27.0201 88.0601 27.1404C87.9627 27.2607 87.8639 27.3739 87.7636 27.4799C87.6662 27.5859 87.5774 27.6776 87.4972 27.755C87.6289 27.7922 87.7564 27.8151 87.8796 27.8237C88.0028 27.8323 88.116 27.8366 88.2192 27.8366H88.8896V28.9927H88.2234C87.8968 28.9927 87.5845 28.9554 87.2866 28.8809C86.9886 28.8036 86.7064 28.6933 86.4399 28.55C86.2566 28.6474 86.0446 28.7291 85.8039 28.795C85.5661 28.8609 85.3211 28.911 85.069 28.9454C84.8169 28.9769 84.5805 28.9927 84.3599 28.9927H83.6809V27.8366H84.3642C84.4358 27.8366 84.5332 27.8366 84.6564 27.8366C84.7796 27.8338 84.9071 27.8266 85.0389 27.8151C85.1736 27.8008 85.2896 27.7793 85.387 27.7507C85.3068 27.6733 85.218 27.5816 85.1206 27.4756C85.0232 27.3696 84.9243 27.2564 84.8241 27.1361C84.7266 27.0129 84.6364 26.8926 84.5533 26.7751C84.4731 26.6548 84.4072 26.543 84.3556 26.4399C84.304 26.3339 84.2783 26.2451 84.2783 26.1735C84.2783 26.0159 84.347 25.8812 84.4845 25.7695C84.6221 25.6577 84.7997 25.5675 85.0174 25.4987C85.2381 25.4271 85.473 25.3741 85.7223 25.3397C85.9744 25.3053 86.2136 25.2882 86.4399 25.2882ZM88.7177 27.8366H89.0486C89.358 27.8366 89.5571 27.7621 89.646 27.6131C89.7348 27.4613 89.7792 27.2421 89.7792 26.9556V22.9889H90.8579V27.0373C90.8579 27.6819 90.7146 28.169 90.4281 28.4985C90.1445 28.8279 89.6832 28.9927 89.0443 28.9927H88.7177V27.8366ZM93.1356 22.9889V28.9884H92.0612V22.9889H93.1356ZM98.7783 27.192C98.7783 27.1204 98.7611 27.0258 98.7268 26.9083C98.6953 26.7909 98.6609 26.692 98.6236 26.6118L97.7942 24.7595L98.7483 24.2997L99.7969 26.7321C99.8914 26.9528 99.9759 27.1461 100.05 27.3123C100.125 27.4785 100.207 27.6074 100.295 27.6991C100.384 27.7908 100.496 27.8366 100.631 27.8366H100.811V28.9927H100.631C100.413 28.9927 100.227 28.9655 100.072 28.911C99.9201 28.8537 99.7854 28.7749 99.6679 28.6747C99.5533 28.5744 99.4459 28.4569 99.3456 28.3223C99.2052 28.4655 99.0434 28.5873 98.86 28.6875C98.6795 28.7878 98.4746 28.8637 98.2454 28.9153C98.0162 28.964 97.7569 28.9884 97.4676 28.9884C97.2269 28.9884 97.0192 28.9798 96.8444 28.9626C96.6725 28.9454 96.4977 28.9153 96.3201 28.8723V27.7206C96.4977 27.7607 96.6811 27.7922 96.8702 27.8151C97.0593 27.8381 97.2369 27.8495 97.4031 27.8495C97.6409 27.8495 97.8644 27.8295 98.0735 27.7893C98.2827 27.7464 98.4517 27.6776 98.5807 27.5831C98.7124 27.4857 98.7783 27.3553 98.7783 27.192ZM100.639 28.9927V27.8366H101.387V27.7464C101.387 27.4656 101.417 27.1705 101.477 26.8611C101.537 26.5516 101.632 26.2623 101.761 25.993C101.89 25.7236 102.062 25.5045 102.277 25.3354C102.491 25.1664 102.755 25.0819 103.067 25.0819C103.337 25.0819 103.567 25.1478 103.759 25.2796C103.951 25.4085 104.099 25.5847 104.202 25.8082C104.305 26.0288 104.357 26.2809 104.357 26.5645C104.357 26.831 104.306 27.0946 104.206 27.3553C104.106 27.6131 103.968 27.8538 103.794 28.0773C103.619 28.2979 103.42 28.4884 103.196 28.6489C102.973 28.8064 102.739 28.9153 102.496 28.9755C102.527 29.0758 102.573 29.1789 102.633 29.2849C102.693 29.3909 102.765 29.4926 102.848 29.59C102.931 29.6903 103.02 29.7777 103.115 29.8522C103.163 29.5857 103.248 29.3322 103.368 29.0915C103.491 28.8509 103.639 28.636 103.811 28.4469C103.986 28.2578 104.179 28.1088 104.391 27.9999C104.603 27.8911 104.824 27.8366 105.053 27.8366H105.195V28.9927H105.044C104.855 28.9927 104.696 29.017 104.567 29.0657C104.441 29.1144 104.339 29.1875 104.262 29.2849C104.185 29.3823 104.127 29.5055 104.09 29.6545C104.056 29.8064 104.039 29.9826 104.039 30.1831C104.039 30.2547 104.04 30.3278 104.043 30.4023C104.049 30.4796 104.054 30.557 104.06 30.6344L103.351 31.3005C103.062 31.1601 102.787 30.9681 102.526 30.7246C102.265 30.4839 102.042 30.2132 101.855 29.9124C101.669 29.6144 101.54 29.3078 101.469 28.9927H100.639ZM103.029 26.1949C102.917 26.1949 102.821 26.2436 102.741 26.3411C102.66 26.4385 102.593 26.566 102.539 26.7235C102.487 26.8783 102.448 27.0473 102.423 27.2307C102.4 27.4112 102.388 27.5831 102.388 27.7464V27.8409C102.577 27.8295 102.749 27.7679 102.904 27.6561C103.062 27.5415 103.188 27.3954 103.282 27.2178C103.377 27.0373 103.424 26.8453 103.424 26.6419C103.424 26.5015 103.387 26.3926 103.312 26.3153C103.241 26.2351 103.146 26.1949 103.029 26.1949ZM107.786 26.3411C107.646 26.3411 107.49 26.3482 107.318 26.3625C107.149 26.3769 106.975 26.4055 106.798 26.4485C106.929 26.5975 107.071 26.7465 107.223 26.8955C107.378 27.0444 107.51 27.1691 107.618 27.2693C107.727 27.3668 107.782 27.4155 107.782 27.4155C107.782 27.4155 107.815 27.3868 107.881 27.3295C107.947 27.2722 108.03 27.1963 108.13 27.1017C108.233 27.0072 108.342 26.9026 108.457 26.788C108.571 26.6734 108.677 26.5602 108.775 26.4485C108.6 26.4055 108.425 26.3769 108.25 26.3625C108.078 26.3482 107.924 26.3411 107.786 26.3411ZM107.782 25.2882C108.008 25.2882 108.246 25.3053 108.495 25.3397C108.747 25.3741 108.982 25.4271 109.2 25.4987C109.421 25.5675 109.6 25.6577 109.737 25.7695C109.878 25.8812 109.948 26.0159 109.948 26.1735C109.948 26.2479 109.922 26.3382 109.87 26.4442C109.822 26.5502 109.756 26.6634 109.673 26.7837C109.59 26.9012 109.499 27.0201 109.402 27.1404C109.305 27.2607 109.206 27.3739 109.105 27.4799C109.008 27.5859 108.919 27.6776 108.839 27.755C108.971 27.7922 109.098 27.8151 109.221 27.8237C109.345 27.8323 109.458 27.8366 109.561 27.8366H110.231V28.9927H109.565C109.239 28.9927 108.926 28.9554 108.628 28.8809C108.33 28.8036 108.048 28.6933 107.782 28.55C107.598 28.6474 107.386 28.7291 107.146 28.795C106.908 28.8609 106.663 28.911 106.411 28.9454C106.159 28.9769 105.922 28.9927 105.702 28.9927H105.023V27.8366H105.706C105.778 27.8366 105.875 27.8366 105.998 27.8366C106.121 27.8338 106.249 27.8266 106.381 27.8151C106.515 27.8008 106.631 27.7793 106.729 27.7507C106.649 27.6733 106.56 27.5816 106.462 27.4756C106.365 27.3696 106.266 27.2564 106.166 27.1361C106.068 27.0129 105.978 26.8926 105.895 26.7751C105.815 26.6548 105.749 26.543 105.697 26.4399C105.646 26.3339 105.62 26.2451 105.62 26.1735C105.62 26.0159 105.689 25.8812 105.826 25.7695C105.964 25.6577 106.142 25.5675 106.359 25.4987C106.58 25.4271 106.815 25.3741 107.064 25.3397C107.316 25.3053 107.555 25.2882 107.782 25.2882ZM112.87 26.6591C112.747 26.6591 112.635 26.7006 112.535 26.7837C112.438 26.8668 112.35 26.9685 112.273 27.0888C112.198 27.2063 112.135 27.3209 112.084 27.4326C112.167 27.5129 112.247 27.5831 112.324 27.6432C112.405 27.7005 112.479 27.7492 112.548 27.7893C112.654 27.8495 112.751 27.8925 112.84 27.9183C112.932 27.9441 113.012 27.957 113.081 27.957C113.244 27.957 113.362 27.9025 113.433 27.7936C113.508 27.6848 113.545 27.553 113.545 27.3983C113.545 27.1948 113.485 27.0215 113.364 26.8783C113.244 26.7321 113.079 26.6591 112.87 26.6591ZM113.076 29.0915C112.879 29.0915 112.691 29.0629 112.513 29.0056C112.336 28.9483 112.162 28.868 111.993 28.7649C111.827 28.6618 111.66 28.5429 111.491 28.4082C111.385 28.5199 111.277 28.6202 111.168 28.709C111.059 28.795 110.933 28.8637 110.79 28.9153C110.647 28.9669 110.466 28.9927 110.249 28.9927H110.06V27.8366H110.227C110.379 27.8366 110.512 27.7822 110.627 27.6733C110.741 27.5644 110.852 27.4241 110.958 27.2522C111.064 27.0774 111.173 26.894 111.284 26.7021C111.399 26.5072 111.526 26.3224 111.667 26.1477C111.807 25.9729 111.972 25.8311 112.161 25.7222C112.35 25.6133 112.575 25.5589 112.836 25.5589C113.188 25.5589 113.493 25.6434 113.751 25.8125C114.012 25.9786 114.212 26.1992 114.353 26.4743C114.493 26.7493 114.563 27.0502 114.563 27.3768C114.563 27.7091 114.508 28.0042 114.396 28.2621C114.284 28.5199 114.118 28.7234 113.897 28.8723C113.68 29.0185 113.406 29.0915 113.076 29.0915Z" fill="#E6E6E8"/>
<path d="M70.8631 43.5166L70.4811 43.5029L70.2218 43.3801L69.9489 43.2983L69.7989 43.1209L69.6488 42.9571L69.5942 42.616L69.6624 42.3841L69.6351 42.1385V41.9884L69.6897 41.7018L69.676 41.579L69.5123 41.4699L69.3349 41.3607L69.2121 41.2652L69.1848 41.006L69.1303 40.8149L69.2258 40.5966L69.2121 40.351L69.294 40.2282L69.4987 39.9963L69.6897 39.8325L69.9899 39.7779L70.099 39.7097L70.3992 39.5323L70.5629 39.1776L70.5766 39.0138L70.6175 38.8092L70.7267 38.5636L70.7949 38.3316L70.8495 38.1406L70.8631 37.9769L71.0405 37.7722L70.9859 37.5675L71.136 37.3901V37.1445L71.177 36.9671L71.2725 36.7761L71.3816 36.6124L71.4499 36.4214L71.5727 36.2167L71.6136 35.9029L71.7091 35.7937L71.7773 35.5072L71.9001 35.3571L72.0229 35.0433L72.0911 34.8113L72.2549 34.6476L72.2822 34.4156L72.5278 34.2109L72.5687 34.1291L72.828 34.0199L73.0053 33.9517H73.1827L73.4965 33.8835L73.7012 33.9653L73.8786 33.979L74.056 34.1018L74.2197 34.2246L74.4517 34.4702L74.5881 34.7021L74.6836 34.8932L74.8337 35.1661L74.9156 35.398L74.9292 35.5481L74.9975 35.7528L75.0657 35.9438L75.1612 36.1075L75.2294 36.3531L75.2158 36.5305L75.4477 36.7488L75.3659 36.9126L75.5296 37.1582L75.5023 37.3492L75.6933 37.472V37.663L75.8025 37.8677L75.8298 37.9905L75.898 38.2634L76.0208 38.4681L76.0072 38.6727L76.0481 38.8501L76.2391 39.0411L76.2937 39.355L76.3619 39.5596L76.4438 39.7097L76.4574 39.9144L76.512 40.0781L76.4847 40.2964L76.6348 40.4875L76.7167 40.6921V40.8832L76.8941 41.1015L76.935 41.2789L76.9486 41.5108L76.8668 41.6882L76.9759 41.9202L77.0851 42.234L77.126 42.5069L77.0305 42.7115L77.0851 42.8207L76.9759 43.0799L76.7303 43.2027L76.5257 43.3392L76.1845 43.3801L76.0208 43.4074L75.8025 43.2846L75.475 43.2164L75.1203 43.039L75.0111 42.7388L74.9565 42.5751L74.861 42.3431L74.8201 42.0566L74.7382 41.7837L74.5335 41.6882H74.3698H74.1651L74.0014 41.6609L73.8922 41.6473L73.6739 41.6609L73.5102 41.7018L73.3737 41.6745L73.2509 41.7018L73.0326 41.6882L72.9098 41.7018L72.7188 41.6882H72.596H72.3913L72.1594 41.7155L71.982 41.8929L71.9411 42.1385L71.9683 42.3977L71.8183 42.5478L71.7773 42.7252L71.6272 42.9844L71.5317 43.1618L71.2042 43.3801L71.0132 43.4074L70.8631 43.5166ZM72.8552 39.7643L72.978 39.7234L73.1145 39.737L73.2373 39.7234L73.3465 39.6824L73.5511 39.6961L73.7285 39.6415L73.8513 39.6551L73.9741 39.6006L74.1242 39.5323L74.0696 39.355L74.056 39.2185L74.0423 39.1094L74.0014 38.9593L73.9741 38.8365L73.9605 38.6591L73.9195 38.5636L73.824 38.4408L73.8377 38.3589L73.824 38.2225L73.7967 38.1269L73.7831 37.9905L73.7285 37.9086L73.633 37.7722L73.6057 37.704L73.5238 37.5812L73.4693 37.4584L73.4556 37.3492L73.4693 37.2537L73.3328 37.0627L73.2782 37.2128L73.21 37.3083L73.1281 37.4174L73.1009 37.5266L73.019 37.663V37.7585L72.9644 37.9223L72.8962 38.086L72.8825 38.2088L72.828 38.3043L72.8007 38.4271L72.7461 38.5636L72.7052 38.7137V38.8638L72.6915 39.0138V39.1639L72.6233 39.314V39.4368L72.6506 39.5869L72.6915 39.7234L72.8552 39.7643ZM79.6351 43.5029L79.526 43.4483L79.1576 43.3801L78.8028 43.2983L78.6118 43.1755L78.489 43.0527L78.3253 42.9299L78.2025 42.7525L78.0797 42.4386L77.9568 42.2613L77.9841 42.043L77.875 41.9474L77.9023 41.6745L77.7385 41.5108L77.6703 41.3061L77.7931 41.1015L77.6703 40.7467L77.6976 40.4738L77.7658 40.2555L77.684 40.0645L77.7249 39.6006L77.7795 39.3959L77.8204 39.1639L77.8477 38.8092L77.7795 38.6727L77.8204 38.4681L77.8613 38.3043L77.8886 38.0451L77.7931 37.8813L77.875 37.5129L77.834 37.2673L77.9023 37.0899L77.9159 36.9126L77.9568 36.667L77.7795 36.5032L77.7931 36.3122L77.875 36.0939L77.8477 35.8483L77.9296 35.7118L77.8477 35.4253L77.9159 35.2206L77.8886 35.0569L77.8613 34.7021L78.0114 34.4292L77.9841 34.2246L78.0251 34.0063L78.1752 33.8289L78.298 33.6106L78.4753 33.4741L78.7482 33.5014L79.1849 33.4605L79.3486 33.4468L79.6351 33.5287L79.8125 33.7061L79.9626 33.7879L79.9899 34.0745L80.0854 34.2246L80.14 34.4565L80.0718 34.7704L80.1809 35.1251L80.0308 35.4117L80.1263 35.6573L80.0718 35.9711L79.949 36.1485L80.0035 36.4077L79.8944 36.6397L80.0172 36.8853L79.8807 37.0899L79.9353 37.281L79.8807 37.4174L79.8671 37.6221L79.908 37.9769L79.8262 38.2634L79.8125 38.509L79.8262 38.7L79.9217 38.891L79.9353 39.0548L79.8535 39.3413L79.7989 39.505L79.8944 39.737L79.7852 39.9144L79.8398 40.2009L79.8807 40.4192L79.8671 40.6376V40.8695L79.9353 41.0332L80.0172 41.1697L80.1809 41.2379L80.2901 41.3198L80.4948 41.4972L80.522 41.6336L80.7676 41.7837L80.8904 41.9747L80.9587 42.1112L80.9996 42.3841L80.9041 42.7525L80.8086 43.1072L80.563 43.2846L80.1946 43.4074L80.0581 43.5029H79.6351ZM85.8197 39.9826L85.8743 40.2009L85.6014 40.4875L85.5195 40.6376L84.9874 40.7467L84.7145 40.7331L84.4279 40.774L84.2096 40.7467L83.9231 40.7058L83.582 40.774L83.1863 40.7194L82.9952 40.8013L82.8451 40.7331L82.3812 40.8559L82.0538 40.8832L81.699 40.8149L81.4807 40.7331L81.276 40.5966L81.1259 40.5284L81.0441 40.351L80.894 40.0645L81.0031 39.7779L80.9622 39.5187L81.0441 39.355L81.1259 39.0411L81.4125 39.0138L81.5489 38.8774L81.8082 38.8092L82.2721 38.8228L82.5995 38.7955L82.8042 38.8092L83.2545 38.8365L83.4728 38.7546L83.6911 38.7955H84.1823L84.3733 38.7L84.5507 38.7819L84.8918 38.6454L85.1511 38.7137L85.4513 38.8228L85.5604 38.9047L85.6286 39.0138L85.7105 39.2322L85.8197 39.546V39.7779V39.9826ZM89.8675 43.5302L89.6629 43.4483L89.3491 43.4347L89.1853 43.3665L88.8442 43.2846L88.5304 43.1482L88.3257 43.0254L88.1483 42.9299L88.0392 42.8071L87.7936 42.6433L87.7117 42.4932L87.4115 42.234L87.3296 42.0566L87.2614 41.9474L87.1523 41.7428L86.9612 41.4699L86.8521 41.2516L86.8657 41.1015L86.6611 40.7331L86.5928 40.5693L86.6883 40.3101L86.5519 40.1191V39.9007L86.4973 39.5733L86.4155 39.2594L86.4427 38.8774L86.5655 38.4544L86.511 38.1952L86.5928 37.9223L86.5519 37.6903L86.6338 37.4311L86.5519 37.24L86.7429 37.0354L86.6747 36.8307L86.7839 36.5987L87.0158 36.2167L87.0704 36.0939L87.1386 35.8346L87.2341 35.7391L87.3842 35.5754L87.3706 35.3571L87.5616 35.2343L87.6981 35.0296L87.9846 34.7977L88.1347 34.6748L88.3121 34.4838L88.4212 34.3337L88.6532 34.2928L88.776 34.2246L89.0898 34.1018L89.4309 34.0199L89.7175 33.9517L89.9358 33.9107L90.1677 33.9517L90.4816 33.8698L90.7272 33.9107L90.8909 33.9653L91.1365 34.0199L91.3957 34.0881L91.655 34.1427L91.8187 34.2519L92.0098 34.3337L92.3099 34.552L92.4464 34.7704L92.5555 34.8659L92.5828 35.0705L92.6101 35.3434L92.5146 35.5208L92.4191 35.6163L92.2554 35.7937L92.1735 35.8619L91.9415 35.9029L91.7505 35.9302L91.5731 35.9847L91.3685 36.0393L91.1911 36.0939L90.9318 36.0393L90.7408 36.1485L90.5634 36.1075L90.386 36.1485L90.1541 36.1075L90.0313 36.1348L89.9085 36.1485L89.7584 36.2167L89.5674 36.203L89.4719 36.2713L89.3354 36.3531L89.2399 36.4214L89.1307 36.626L89.0079 36.7215L88.9943 36.9126L88.9124 37.049L88.9397 37.2264L88.8578 37.3901L88.8169 37.5675L88.7487 37.7585L88.776 38.086L88.6122 38.2634L88.7214 38.6318L88.7078 38.8774L88.6941 39.0684L88.6532 39.3277L88.7623 39.5596L88.6941 39.7097L88.735 39.928L88.8715 40.1873L88.8033 40.3647L88.8851 40.5148L88.9534 40.6376L89.0079 40.7604L89.0762 40.9514L89.2399 41.1151L89.4036 41.2516L89.5128 41.3334L89.6083 41.4426L89.8812 41.4017L90.1268 41.4835L90.4133 41.4289L90.7272 41.4017L90.9045 41.3607L91.0819 41.3198L91.2866 41.1833L91.5185 41.0878L91.6413 40.9787L91.655 40.8286L91.6141 40.7194L91.6413 40.5148L91.5868 40.351L91.5322 40.2282L91.5595 40.0645L91.464 39.969L91.3002 39.8462L91.2457 39.7643L90.9864 39.6551L90.7135 39.6824L90.5498 39.6688L90.3178 39.5596L90.1404 39.3822L90.0313 39.3004L89.813 39.0138L89.7175 38.7L89.7993 38.5226L89.813 38.2634L89.8539 38.0178L90.0586 37.9086L90.1404 37.8268L90.4679 37.7449L90.6044 37.663H90.9864L91.1774 37.6357L91.3548 37.6221L91.5458 37.7176L91.846 37.663L92.0234 37.6494L92.2281 37.6767L92.5283 37.6903L92.883 37.6494L93.1695 37.7722L93.3606 37.9223L93.5925 38.1269L93.8108 38.4681L93.7153 38.7819L93.7699 38.9183L93.7563 39.1776L93.6335 39.4505L93.5925 39.8462L93.5516 40.1191L93.5925 40.3374L93.5652 40.5011L93.5789 40.7876L93.5925 41.0605L93.688 41.2652L93.6198 41.5245L93.5789 41.811L93.6198 42.1658L93.5107 42.3295L93.3196 42.5751L93.2241 42.7252L92.7875 42.9026L92.5283 42.9708L92.3509 43.1345L92.1053 43.2027L91.8324 43.3119L91.5458 43.3392L91.3957 43.4211H91.1229L90.7408 43.5166L90.427 43.4756L89.8675 43.5302ZM94.9882 43.1482L94.8518 42.9844L94.7563 42.848L94.6062 42.6842L94.6198 42.3977V42.0975L94.6471 41.8656L94.6335 41.6882L94.6744 41.4972L94.6608 41.3061L94.6744 41.1015L94.6471 40.8832L94.7017 40.6648L94.5925 40.4602L94.6744 40.2691L94.7426 40.0508L94.688 39.8325L94.7017 39.6279V39.4368L94.688 39.2322L94.7017 39.0138L94.729 38.8365V38.5636V38.4408L94.7153 38.1679L94.7017 38.0587L94.7153 37.7858L94.7426 37.5675L94.688 37.3492L94.7836 37.1445L94.6608 37.0081L94.7017 36.8307L94.7153 36.6124L94.7836 36.3804L94.7153 36.203L94.6744 36.0257L94.6608 35.7528L94.729 35.6027L94.7153 35.3571L94.7017 35.1388L94.7153 34.7977V34.6066L94.7699 34.3747L94.8245 34.2519L94.9882 34.0881L94.9746 33.8562L95.1247 33.6651L95.343 33.556L95.4385 33.5014L95.766 33.4741L96.1344 33.5151L96.2572 33.556L96.5028 33.5833L96.571 33.7334L96.803 33.9926L96.8712 34.1018L96.8848 34.3337L97.0213 34.552L97.0622 34.6612V34.8795L96.9667 35.2889L97.0213 35.4526L96.9121 35.6709L96.9667 35.9029L96.994 36.1485L96.9803 36.3122L96.9667 36.4896L97.1168 36.435L97.3488 36.3668L97.4716 36.3122L97.799 36.2849L97.9218 36.203L98.3175 36.1758L98.5495 36.203L98.877 36.1758L99.1089 36.2576L99.4091 36.3531H99.5319L99.7775 36.5032L99.8867 36.5987L100.078 36.7079L100.146 36.8716L100.351 37.0763L100.405 37.2128L100.528 37.4311L100.569 37.5539L100.664 37.7858L100.705 37.9905L100.746 38.1542L100.828 38.3453L100.814 38.5499L100.883 38.7682L100.896 39.0411L100.828 39.2322L100.787 39.546L100.883 39.8598L100.842 40.0508L100.896 40.2282V40.4465L100.855 40.6239V41.0469L100.924 41.1697L100.869 41.4153L101.006 41.6609V41.8792V42.193L100.937 42.3977L100.883 42.5751L100.91 42.7798L100.814 43.0254L100.664 43.2027L100.487 43.3255L100.269 43.4347L100.091 43.4756L99.8321 43.5439L99.5046 43.4756L99.3545 43.4483L99.1635 43.3801L98.9588 43.2164L98.9179 42.9844L98.877 42.8889L98.6996 42.657L98.7132 42.4659L98.6996 42.2886L98.6177 42.1112L98.645 41.8929L98.5904 41.6473L98.6723 41.4017L98.6996 41.0605L98.6859 40.9104L98.6313 40.6103L98.6177 40.5011L98.7405 40.2419L98.6859 40.0235L98.6996 39.7234L98.7269 39.5323L98.6996 39.3277L98.7132 38.9729L98.6996 38.8092V38.6591L98.5768 38.4408L98.4949 38.2361L98.4267 38.0997L98.1401 38.0451L97.8945 38.086L97.6489 38.1952L97.4988 38.3316L97.4852 38.3725L97.3351 38.5772L97.1987 38.7682L97.1031 39.0548L97.0349 39.3004L97.0622 39.4505L96.9121 39.6551L96.9394 39.8052L96.9667 40.0781L96.9258 40.2419L96.994 40.542V40.7194L96.9803 40.9787L97.0076 41.1833L96.9667 41.5517V41.6745L97.0076 41.8929L96.803 42.1112L96.762 42.3158L96.6938 42.4386L96.6256 42.6433L96.4618 42.8071L96.3936 42.8889L96.2162 43.0527L96.0389 43.1755L95.8751 43.3119L95.6568 43.3255L95.534 43.3119H95.4385L95.2884 43.2573L94.9882 43.1482ZM104.895 43.4756L104.554 43.5029L104.117 43.5439L103.858 43.462L103.544 43.4756L103.435 43.4074L103.149 43.3119L102.985 43.1618L102.753 42.9708L102.548 42.7525L102.384 42.4659L102.207 42.3568L102.18 42.043L102.016 41.8792L101.975 41.62L101.948 41.4289L101.921 41.1424L101.907 40.8832V40.6648L101.866 40.4465L101.825 40.1736L101.811 39.737L101.866 39.5187L101.852 39.3822V39.0957L101.948 38.7819L102.002 38.5636V38.318L102.166 38.1406L102.248 37.9496L102.344 37.7722L102.412 37.5812L102.507 37.4447L102.698 37.24L102.753 37.0763L102.917 36.8989L103.149 36.7761L103.162 36.667L103.408 36.5578L103.599 36.4759L103.913 36.3259L104.199 36.3122L104.554 36.203H105.032L105.373 36.1485L105.673 36.1758L105.918 36.2713H106.055L106.273 36.3122H106.478L106.642 36.4077L106.928 36.3941L107.174 36.5578L107.392 36.6943L107.61 36.7898L107.897 36.9808L107.911 37.2673L108.006 37.4038L108.115 37.6221L108.088 37.9769L108.047 38.318L108.074 38.5909L108.102 38.7546L108.074 38.9866L107.979 39.2731L108.006 39.546L107.951 39.6688L108.074 39.9417L107.979 40.4056L107.992 40.583L108.102 40.8286L108.047 41.2379L108.074 41.4426V41.7018L108.17 41.8246L108.061 42.193L108.074 42.3841L108.115 42.616L108.006 42.7525L107.938 42.9026L107.747 43.1345L107.583 43.271L107.433 43.3938H107.174L106.887 43.3528L106.792 43.1891L106.573 42.8616L106.369 42.7115L106.219 42.7661L106 42.8616L105.727 43.0663L105.591 43.2437L105.25 43.3665L105.086 43.4347L104.895 43.4756ZM104.663 41.5381L104.881 41.5108L105.004 41.5245L105.168 41.4699L105.277 41.3607L105.4 41.2652L105.495 41.2106L105.632 41.1151L105.686 40.965L105.741 40.8422L105.823 40.6512L105.864 40.542V40.2146L105.809 40.1054L105.823 39.9144V39.7097L105.837 39.5596L105.85 39.3959L105.891 39.2731L105.918 39.1094L105.946 38.9593L105.891 38.8638L105.959 38.6454L105.905 38.509L105.932 38.3725L105.809 38.1679L105.618 38.086L105.468 38.0178L105.291 38.0314L105.045 38.0041L104.868 38.0724L104.69 38.1269L104.554 38.2361L104.39 38.3043L104.308 38.4408L104.254 38.5772L104.145 38.7L104.131 38.932L104.104 39.0821L104.076 39.2322V39.3822L104.035 39.4914L103.981 39.6961L104.035 39.8735L103.981 40.0508L104.035 40.2555L104.049 40.4465V40.5966L103.995 40.8013L104.022 40.965L104.09 41.0605L104.117 41.1833L104.172 41.2652L104.308 41.4017L104.377 41.4562L104.568 41.4835L104.663 41.5381ZM109.731 46.2319L109.485 46.1091L109.281 46.0135L109.199 45.9317L109.103 45.7406L109.049 45.5496L109.117 45.2494L109.226 45.0993L109.267 44.9356L109.349 44.7719L109.499 44.4853L109.608 44.3216L109.731 44.1852L109.908 44.076L110.072 43.9396L110.236 43.8031L110.454 43.7349L110.659 43.5029L110.686 43.3255L110.659 43.1345L110.7 42.9571L110.631 42.7934L110.604 42.657L110.577 42.4932L110.468 42.3431L110.318 42.1385L110.195 41.9065L110.208 41.7564L110.113 41.5245L110.058 41.3744L110.017 41.1424L109.922 40.9514L109.826 40.774L109.745 40.5966L109.649 40.4465L109.622 40.2146L109.581 40.0372L109.403 39.8462L109.322 39.6824L109.294 39.5187L109.281 39.2731L109.199 39.0684L109.117 38.9183L109.076 38.7L108.98 38.5363L108.953 38.318L108.926 38.1269L108.871 37.9223L108.803 37.704L108.776 37.4993L108.639 37.1309L108.776 36.9262L108.749 36.7761L108.899 36.6943L109.131 36.5987L109.308 36.5032L109.499 36.4214L109.567 36.4759L109.69 36.5578L109.867 36.626L110.004 36.6943L110.331 36.7215L110.345 36.8171L110.509 37.0217L110.591 37.0763L110.7 37.24L110.795 37.4038L110.973 37.6357L111.068 37.8131L111.123 37.9496L111.136 38.2088L111.191 38.3998V38.6318L111.245 38.7682L111.382 39.0138L111.423 39.1912L111.382 39.3686L111.491 39.5733L111.505 39.8052L111.668 39.9417L111.682 40.1327L111.764 40.3237L111.996 40.4329L112.064 40.1736L112.16 39.9144V39.7643L112.296 39.5869L112.269 39.355L112.337 39.2185L112.323 39.0138L112.405 38.7955L112.474 38.5636L112.46 38.3316L112.583 37.9769L112.624 37.8268L112.678 37.6494L112.705 37.5129L112.774 37.2537L112.978 37.1582L113.06 36.9944L113.156 36.8989L113.333 36.8171L113.374 36.6397L113.62 36.626L113.824 36.5578L114.015 36.4214L114.056 36.3804L114.261 36.4487L114.37 36.4759L114.575 36.5851L114.725 36.7352L114.889 36.8853L114.97 37.1172L114.902 37.4038L114.889 37.7176L114.807 37.9086L114.752 38.1406V38.2497L114.67 38.4953V38.6591L114.534 38.8365L114.52 39.123L114.534 39.2867L114.411 39.5187L114.302 39.6688V39.8462L114.288 40.1054L114.206 40.2146L114.111 40.4056L114.07 40.6103L113.974 40.8013L113.838 40.9787L113.77 41.1561L113.715 41.3744L113.688 41.5517L113.606 41.7973L113.538 41.9611L113.497 42.1658L113.319 42.3158V42.5205L113.238 42.7798L113.101 42.8889L113.019 43.1072L112.924 43.3665L112.746 43.5712L112.733 43.8713L112.61 43.9941L112.569 44.2124L112.419 44.4171L112.269 44.5945L112.242 44.7037L112.091 44.9493L111.996 45.0584L111.791 45.2904L111.682 45.4132L111.573 45.5633L111.355 45.6178L111.245 45.7543L111.082 45.918L110.863 45.9999L110.618 46.0818L110.481 46.1636H110.318L110.113 46.1773L109.731 46.2319ZM118.446 43.4756L118.105 43.5029L117.669 43.5439L117.409 43.462L117.096 43.4756L116.986 43.4074L116.7 43.3119L116.536 43.1618L116.304 42.9708L116.1 42.7525L115.936 42.4659L115.758 42.3568L115.731 42.043L115.567 41.8792L115.526 41.62L115.499 41.4289L115.472 41.1424L115.458 40.8832V40.6648L115.417 40.4465L115.376 40.1736L115.363 39.737L115.417 39.5187L115.404 39.3822V39.0957L115.499 38.7819L115.554 38.5636V38.318L115.718 38.1406L115.799 37.9496L115.895 37.7722L115.963 37.5812L116.059 37.4447L116.25 37.24L116.304 37.0763L116.468 36.8989L116.7 36.7761L116.714 36.667L116.959 36.5578L117.15 36.4759L117.464 36.3259L117.751 36.3122L118.105 36.203H118.583L118.924 36.1485L119.224 36.1758L119.47 36.2713H119.606L119.825 36.3122H120.029L120.193 36.4077L120.479 36.3941L120.725 36.5578L120.943 36.6943L121.162 36.7898L121.448 36.9808L121.462 37.2673L121.557 37.4038L121.667 37.6221L121.639 37.9769L121.598 38.318L121.626 38.5909L121.653 38.7546L121.626 38.9866L121.53 39.2731L121.557 39.546L121.503 39.6688L121.626 39.9417L121.53 40.4056L121.544 40.583L121.653 40.8286L121.598 41.2379L121.626 41.4426V41.7018L121.721 41.8246L121.612 42.193L121.626 42.3841L121.667 42.616L121.557 42.7525L121.489 42.9026L121.298 43.1345L121.134 43.271L120.984 43.3938H120.725L120.439 43.3528L120.343 43.1891L120.125 42.8616L119.92 42.7115L119.77 42.7661L119.552 42.8616L119.279 43.0663L119.142 43.2437L118.801 43.3665L118.637 43.4347L118.446 43.4756ZM118.214 41.5381L118.433 41.5108L118.556 41.5245L118.719 41.4699L118.828 41.3607L118.951 41.2652L119.047 41.2106L119.183 41.1151L119.238 40.965L119.292 40.8422L119.374 40.6512L119.415 40.542V40.2146L119.361 40.1054L119.374 39.9144V39.7097L119.388 39.5596L119.402 39.3959L119.443 39.2731L119.47 39.1094L119.497 38.9593L119.443 38.8638L119.511 38.6454L119.456 38.509L119.483 38.3725L119.361 38.1679L119.17 38.086L119.02 38.0178L118.842 38.0314L118.597 38.0041L118.419 38.0724L118.242 38.1269L118.105 38.2361L117.942 38.3043L117.86 38.4408L117.805 38.5772L117.696 38.7L117.682 38.932L117.655 39.0821L117.628 39.2322V39.3822L117.587 39.4914L117.532 39.6961L117.587 39.8735L117.532 40.0508L117.587 40.2555L117.6 40.4465V40.5966L117.546 40.8013L117.573 40.965L117.641 41.0605L117.669 41.1833L117.723 41.2652L117.86 41.4017L117.928 41.4562L118.119 41.4835L118.214 41.5381Z" fill="#E6E6E8"/>
</svg>
