<svg version="1.1" xmlns="http://www.w3.org/2000/svg" style="display: block;" viewBox="0 0 2048 2048" width="1000" height="1000" preserveAspectRatio="none">
<defs>
	<linearGradient id="Gradient1" gradientUnits="userSpaceOnUse" x1="1313.14" y1="1497.47" x2="621.618" y2="359.12">
		<stop class="stop0" offset="0" stop-opacity="1" stop-color="rgb(172,114,26)"/>
		<stop class="stop1" offset="1" stop-opacity="1" stop-color="rgb(235,208,134)"/>
	</linearGradient>
	<linearGradient id="Gradient2" gradientUnits="userSpaceOnUse" x1="580.46" y1="1039.19" x2="550.043" y2="884.15">
		<stop class="stop0" offset="0" stop-opacity="1" stop-color="rgb(194,144,59)"/>
		<stop class="stop1" offset="1" stop-opacity="1" stop-color="rgb(224,190,110)"/>
	</linearGradient>
	<linearGradient id="Gradient3" gradientUnits="userSpaceOnUse" x1="1032.71" y1="603.975" x2="1018.19" y2="449.546">
		<stop class="stop0" offset="0" stop-opacity="1" stop-color="rgb(199,152,67)"/>
		<stop class="stop1" offset="1" stop-opacity="1" stop-color="rgb(227,195,115)"/>
	</linearGradient>
	<linearGradient id="Gradient4" gradientUnits="userSpaceOnUse" x1="1091.25" y1="1218.38" x2="1390.85" y2="1365.55">
		<stop class="stop0" offset="0" stop-opacity="1" stop-color="rgb(93,0,168)"/>
		<stop class="stop1" offset="1" stop-opacity="1" stop-color="rgb(140,14,249)"/>
	</linearGradient>
	<linearGradient id="Gradient5" gradientUnits="userSpaceOnUse" x1="1377.33" y1="1508.31" x2="676.801" y2="543.956">
		<stop class="stop0" offset="0" stop-opacity="1" stop-color="rgb(59,13,82)"/>
		<stop class="stop1" offset="1" stop-opacity="1" stop-color="rgb(93,35,119)"/>
	</linearGradient>
	<linearGradient id="Gradient6" gradientUnits="userSpaceOnUse" x1="2253.59" y1="718.256" x2="1378.18" y2="-223.887">
		<stop class="stop0" offset="0" stop-opacity="1" stop-color="rgb(198,153,69)"/>
		<stop class="stop1" offset="1" stop-opacity="1" stop-color="rgb(220,185,104)"/>
	</linearGradient>
	<linearGradient id="Gradient7" gradientUnits="userSpaceOnUse" x1="481.807" y1="2131.68" x2="275.067" y2="1084.3">
		<stop class="stop0" offset="0" stop-opacity="1" stop-color="rgb(182,130,45)"/>
		<stop class="stop1" offset="1" stop-opacity="1" stop-color="rgb(208,167,86)"/>
	</linearGradient>
</defs>
<path transform="translate(0,0)" fill="rgb(81,27,107)" d="M 0 0 L 977.231 0 L 1074.64 0 L 2048 0 L 2048 962.288 L 2048 1096.46 L 2048 2048 L 1086.47 2048 L 974.487 2048 L 0 2048 L 0 1081.53 L 0 966.344 L 0 0 z"/>
<path transform="translate(0,0)" fill="url(#Gradient7)" d="M 0 1081.53 L 0.165904 1082.64 C 2.95353 1102.07 3.44251 1124.63 6.06129 1145.37 C 12.1873 1191.88 21.0646 1237.98 32.6463 1283.44 C 90.6416 1505.63 221.825 1701.79 405.018 1840.25 C 535.387 1938.66 687.376 2004.51 848.334 2032.31 C 881.628 2038.33 914.436 2042.64 948.166 2044.85 C 956.45 2045.4 966.443 2046.19 974.487 2048 L 0 2048 L 0 1081.53 z"/>
<path transform="translate(0,0)" fill="rgb(225,193,113)" d="M 0 0 L 977.231 0 C 959.203 3.34553 932.096 3.63697 912.929 5.49239 C 878.309 9.16989 843.917 14.7497 809.911 22.2066 C 604.181 65.5781 416.97 171.696 274.083 325.933 C 118.235 494.983 22.4412 710.934 2.7412 939.502 C 1.97707 948.368 1.58603 957.618 0 966.344 L 0 0 z"/>
<path transform="translate(0,0)" fill="rgb(184,130,43)" d="M 1086.47 2048 C 1100.09 2045.03 1124.3 2044.24 1139.08 2042.18 C 1162.9 2038.87 1187.82 2035.57 1211.4 2030.97 C 1368.48 2001.23 1516.52 1935.47 1643.9 1838.87 C 1832.12 1697.08 1965.16 1494.22 2020.2 1265.08 C 2029.23 1229.05 2036.25 1192.54 2041.22 1155.73 C 2043.93 1135.92 2045.14 1116.1 2048 1096.46 L 2048 2048 L 1086.47 2048 z"/>
<path transform="translate(0,0)" fill="url(#Gradient6)" d="M 1074.64 0 L 2048 0 L 2048 962.288 C 2047.14 958.216 2046.96 952.72 2046.54 948.49 C 2042.98 912.412 2038.86 876.535 2032.21 840.884 C 2005.43 693.841 1946.9 554.409 1860.71 432.308 C 1716.57 228.372 1502.87 84.1391 1259.83 26.7489 C 1220.01 17.1648 1179.61 10.1572 1138.88 5.76959 C 1119.11 3.58243 1093.38 3.6777 1074.64 0 z"/>
<path transform="translate(0,0)" fill="rgb(139,76,165)" d="M 671.256 1678.1 C 668.634 1674.88 666.847 1669.57 665.12 1665.73 C 658.275 1650.48 648.453 1619.08 637.196 1608.69 C 615.086 1588.27 517.683 1615.14 477.027 1588.85 C 446.005 1568.78 446.669 1536.92 446.904 1503.88 L 447.271 1452.91 C 447.538 1408.04 443.498 1410.24 404.409 1391.69 C 376.186 1378.3 333.004 1366.16 310.66 1345.23 C 279.262 1315.83 293.838 1281.44 307.1 1248.31 L 328.591 1194.61 C 332.379 1185.11 338.715 1172.64 337.675 1162.26 C 334.635 1131.92 242.37 1076.63 233.746 1033.51 C 226.502 997.296 250.675 975.346 274.19 952.586 L 311.23 916.745 C 343.073 885.877 343.897 881.119 325.126 840.691 C 318.752 826.964 313.283 809.132 306.93 795.708 C 288.508 756.779 280.134 717.414 321.699 690.001 C 332.335 682.978 345.421 678.33 357.473 673.013 L 408.069 650.497 C 445.553 634.124 446.79 632.751 446.993 591.201 C 447.14 574.277 447.183 557.351 447.123 540.426 C 447.081 528.429 446.455 510.412 448.487 499.208 C 450.021 490.529 453.255 482.24 458.004 474.816 C 478.207 443.474 509.311 444.026 541.219 443.397 C 558.395 442.995 575.577 442.919 592.757 443.169 C 640.894 443.627 638.314 442.799 656.968 401.37 C 666.844 379.438 680.514 340.567 692.68 321.931 C 699.325 311.54 708.836 303.294 720.064 298.189 C 751.519 283.698 772.678 295.45 802.734 307.179 L 854.634 327.54 C 864.43 331.429 875.673 337.325 886.421 336.717 C 909.257 335.426 969.41 244.275 1011.48 236.161 C 1048.42 229.034 1068.48 252.628 1092.47 275.713 L 1133.88 315.515 C 1163.01 343.688 1160.07 341.071 1199.37 325.797 L 1251.39 305.456 C 1263.11 300.884 1273.74 296.265 1285.79 293.16 C 1313.82 285.938 1342.6 300.097 1357.24 324.293 C 1363.77 335.085 1367.52 346.04 1372.57 357.736 L 1392.91 404.996 C 1409.36 443.368 1412 442.646 1453.12 443.015 L 1507.27 443.445 C 1511.87 443.485 1517.6 443.796 1522.01 443.598 C 1553.36 442.339 1583.14 454.978 1595.44 485.492 C 1602.78 503.709 1601.11 519.824 1601.17 539.012 L 1601.52 591.011 C 1601.84 634.597 1604.61 635.156 1644.34 652.739 C 1671.37 664.704 1701.38 676.23 1727.17 690.213 C 1748.99 702.045 1762.1 732.441 1756.2 756.453 C 1753.09 770.187 1747.23 783.586 1742.07 796.642 C 1735.43 813.646 1728.64 830.594 1721.71 847.485 C 1705.96 885.667 1707.51 886.686 1736.87 915.919 L 1772.51 951.204 C 1790.2 968.494 1809.17 983.189 1814.71 1008.47 C 1817.26 1021.82 1815.74 1031.97 1811.04 1044.73 C 1800.24 1066.35 1781.17 1082.88 1764.41 1100.16 C 1751.5 1113.48 1737.97 1127.67 1724.48 1140.26 C 1716.56 1149.27 1714.2 1151.14 1710.58 1162.77 C 1714.54 1180.48 1722.02 1192.2 1726.79 1208.32 C 1738.92 1249.31 1773.67 1293.27 1747.21 1334.38 C 1742.68 1341.41 1736.8 1347.48 1729.92 1352.23 C 1720.03 1359.12 1701.1 1366.58 1689.24 1371.77 L 1643.71 1392.22 C 1605.12 1409.41 1600.67 1410.99 1601.17 1453.83 L 1601.8 1503.38 C 1602.2 1535.76 1604.64 1561.56 1576.49 1584.61 C 1569.29 1590.54 1557.16 1597.14 1547.78 1598.33 C 1517.2 1602.2 1483.86 1600.52 1452.95 1600.85 C 1411.01 1601.31 1410.08 1601.56 1393.8 1640.04 L 1373.29 1688.19 C 1360.04 1719.28 1350.59 1745.59 1314.18 1753.91 C 1291.34 1759.14 1269.34 1747.06 1248.56 1739.41 C 1232.29 1733.41 1216.57 1727.19 1200.45 1720.94 C 1162.38 1704.9 1160.66 1703.87 1131.63 1732.62 L 1090.39 1773.96 C 1081.83 1782.44 1070.1 1794.8 1060.79 1801.52 C 1038.97 1817.26 1009.88 1816.81 988.026 1801.33 C 977.555 1793.9 967.441 1782.97 958.197 1773.78 C 944.344 1759.93 930.371 1746.2 916.279 1732.59 C 905.844 1722.5 893.393 1706.73 877.718 1710.12 C 866.803 1712.49 855.236 1719.54 844.8 1721.9 C 839.587 1724.15 834.398 1726.52 828.991 1728.25 C 815.499 1733.94 767.601 1752.12 756.11 1754.13 C 749.641 1755.29 743.018 1755.3 736.548 1754.14 C 719.198 1751.18 705.432 1742.58 695.216 1728.25 C 691.791 1725.1 688.309 1717.53 686.507 1713.24 C 681.281 1702.25 675.797 1689.35 671.256 1678.1 z"/>
<path transform="translate(0,0)" fill="url(#Gradient5)" d="M 473.691 1247.42 C 469.854 1238.89 464.692 1225.71 461.729 1216.77 C 410.891 1063.26 423.135 901.01 494.615 756.217 C 510.161 724.725 526.143 701.93 545.94 674.189 C 616.019 575.195 717.071 502.587 831.149 462.674 C 972.592 413.187 1144.16 420.036 1279.18 487.178 C 1325.12 467.909 1375.61 476.373 1419.29 497.747 C 1427.37 501.705 1443.38 513.396 1450.93 514.629 C 1465.11 525.633 1480.32 538.675 1492.16 552.241 C 1493.46 558.203 1504.58 571.748 1508.22 578.241 C 1533.1 622.59 1540.68 656.319 1531.75 705.377 C 1538.48 718.52 1549.75 734.524 1557.6 749.438 C 1580.14 793.28 1597.44 839.623 1609.15 887.51 C 1645.99 1041.49 1619.87 1203.81 1536.57 1338.46 C 1453.96 1473.99 1320.97 1571.23 1166.77 1608.85 C 1034.89 1641.63 895.734 1627.89 772.815 1569.93 C 743.195 1555.82 727.896 1545.37 700.863 1528.85 C 677.029 1528.77 661.13 1526.45 638.114 1519.14 C 574.485 1498.37 521.451 1453.63 490.26 1394.41 C 465.927 1347.08 457.274 1298.52 473.691 1247.42 z"/>
<path transform="translate(0,0)" fill="rgb(250,244,227)" d="M 855.683 951.967 C 857.84 948.596 880.846 928.353 885.19 924.432 L 939.962 874.45 C 949.072 866.155 969.461 845.959 978.166 839.65 C 985.544 842.051 1007.36 840.761 1018.45 843.019 C 1071.9 853.917 1118.78 885.726 1148.65 931.368 L 1038.3 1038.22 C 1051.27 1064.76 1060 1097.79 1052.51 1127.78 C 1050.06 1137.59 1017.19 1166.81 1007.64 1176.83 C 987.197 1196.01 966.836 1218.57 947.069 1238.58 L 810.99 1377.03 C 798.704 1389.61 786.491 1402.26 774.351 1414.97 C 748.638 1441.95 730.522 1465.4 689.401 1462.34 C 611.345 1456.52 549.366 1393.48 533.422 1319.45 C 525.726 1287.62 532.797 1237.63 562.238 1217.99 C 581.784 1199.57 604.249 1180.72 624.454 1162.34 C 671.252 1119.08 718.394 1076.18 765.874 1033.66 C 789.228 1012.69 811.891 991.142 835.547 970.523 C 841.641 965.211 850.389 957.907 855.683 951.967 z"/>
<path transform="translate(0,0)" fill="rgb(184,130,43)" d="M 562.238 1217.99 C 569.089 1217.1 577.352 1212.3 586.004 1210.75 C 627.024 1203.4 666.45 1214.55 699.875 1238.88 C 735.981 1264.7 762.281 1302.89 770.04 1346.93 C 778.189 1393.19 763.688 1427.91 713.946 1434.88 C 680.693 1439.53 647.507 1424.15 621.103 1404.98 C 593.699 1383.97 571.518 1352.1 567.167 1317.2 C 565.338 1302.52 567.551 1293.84 568.365 1279.88 C 561.759 1278.2 557.221 1276.27 550.895 1279.78 C 542.562 1284.41 538.726 1294.34 536.556 1303.19 C 535.285 1308.56 534.239 1313.99 533.422 1319.45 C 525.726 1287.62 532.797 1237.63 562.238 1217.99 z"/>
<path transform="translate(0,0)" fill="rgb(250,244,227)" d="M 640.713 1251.9 C 682.498 1251.99 724.867 1296.35 735.879 1334.28 C 744.008 1362.27 732.855 1390.55 702.711 1397.85 C 658.426 1403.98 600.438 1350.16 605.363 1305.21 C 607.188 1288.55 627.303 1261.38 640.713 1251.9 z"/>
<path transform="translate(0,0)" fill="rgb(184,130,43)" d="M 654 1284.05 C 662.162 1287.13 670.14 1293.01 677.015 1298.38 C 694.303 1311.88 727.565 1358.66 690.093 1368.97 C 668.423 1362.94 642.824 1339.54 635.345 1318.19 C 638.806 1304.69 645.846 1295.29 654 1284.05 z"/>
<path transform="translate(0,0)" fill="rgb(156,48,247)" d="M 855.683 951.967 C 857.84 948.596 880.846 928.353 885.19 924.432 L 939.962 874.45 C 949.072 866.155 969.461 845.959 978.166 839.65 C 985.544 842.051 1007.36 840.761 1018.45 843.019 C 1071.9 853.917 1118.78 885.726 1148.65 931.368 L 1038.3 1038.22 C 1021.89 1012.59 1004.91 992.758 978.408 976.887 C 940.381 954.115 899.495 941.636 855.683 951.967 z"/>
<path transform="translate(0,0)" fill="rgb(250,244,227)" d="M 978.166 839.65 C 1003.19 818.619 1034.93 787.495 1059.04 764.826 L 1214.34 617.737 L 1262.68 571.259 C 1270.76 563.535 1283.18 550.701 1292.56 544.827 C 1315.47 529.973 1348.3 536.022 1372.07 545.987 C 1426.5 568.802 1476.57 623.652 1476.77 685.321 C 1476.88 718.667 1458.41 728.013 1437.6 748.437 C 1449.18 758.632 1477.05 773.445 1490.96 782.967 C 1462.97 801.045 1429.85 826.564 1402.78 846.447 C 1354.07 882.111 1305.69 918.227 1257.65 954.789 C 1235.24 971.91 1212.56 988.623 1190.37 1006.03 C 1185.72 1009.68 1181.03 1013.43 1176.13 1016.74 L 1170.39 1021.94 C 1175.82 990.122 1165.03 958.379 1148.65 931.368 C 1118.78 885.726 1071.9 853.917 1018.45 843.019 C 1007.36 840.761 985.544 842.051 978.166 839.65 z"/>
<path transform="translate(0,0)" fill="rgb(225,193,113)" d="M 1437.6 748.437 C 1449.18 758.632 1477.05 773.445 1490.96 782.967 C 1462.97 801.045 1429.85 826.564 1402.78 846.447 C 1354.07 882.111 1305.69 918.227 1257.65 954.789 C 1235.24 971.91 1212.56 988.623 1190.37 1006.03 C 1185.72 1009.68 1181.03 1013.43 1176.13 1016.74 C 1178.31 1006.85 1195.73 991.451 1203.33 983.705 C 1215.99 970.542 1228.79 957.505 1241.71 944.595 L 1373.75 811.8 C 1393.63 791.988 1418.98 768.824 1437.6 748.437 z"/>
<path transform="translate(0,0)" fill="rgb(156,48,247)" d="M 1148.65 931.368 C 1165.03 958.379 1175.82 990.122 1170.39 1021.94 L 1161.75 1030.87 C 1166.15 1036.81 1168.83 1042.04 1171.53 1048.93 C 1171.42 1054.69 1171.11 1074.91 1168.46 1079.17 C 1163.78 1140.85 1154.98 1204.26 1149.37 1266.02 C 1148 1281.15 1143.19 1308.57 1143.17 1322.05 C 1139.45 1349.07 1137.65 1378.19 1134.52 1405.59 C 1129.48 1449.65 1124.28 1494.72 1120.59 1538.88 C 1099.22 1513.19 1072.98 1475.18 1052.74 1447.61 C 1026.87 1467.78 992.522 1489.38 964.996 1509.3 C 977.929 1417.98 989.779 1326.51 1000.54 1234.91 C 1001.78 1221.96 1008.48 1188.43 1007.64 1176.83 C 1017.19 1166.81 1050.06 1137.59 1052.51 1127.78 C 1060 1097.79 1051.27 1064.76 1038.3 1038.22 L 1148.65 931.368 z"/>
<path transform="translate(0,0)" fill="rgb(81,27,107)" d="M 1148.65 931.368 C 1165.03 958.379 1175.82 990.122 1170.39 1021.94 L 1161.75 1030.87 C 1166.15 1036.81 1168.83 1042.04 1171.53 1048.93 C 1171.42 1054.69 1171.11 1074.91 1168.46 1079.17 C 1159.25 1085.42 1146.15 1099.2 1137.68 1107.21 L 1079.24 1162.78 C 1054.03 1186.93 1025.43 1210.7 1000.54 1234.91 C 1001.78 1221.96 1008.48 1188.43 1007.64 1176.83 C 1017.19 1166.81 1050.06 1137.59 1052.51 1127.78 C 1060 1097.79 1051.27 1064.76 1038.3 1038.22 L 1148.65 931.368 z"/>
<path transform="translate(0,0)" fill="url(#Gradient4)" d="M 1171.53 1048.93 C 1217.12 1129.31 1262.22 1209.96 1306.83 1290.89 C 1321.54 1317.12 1336.51 1343.29 1351.11 1369.6 C 1358.9 1383.63 1368.15 1397.43 1375.67 1411.57 C 1357.32 1408.44 1339.84 1404.1 1321.7 1399.98 C 1305.02 1396.19 1287.73 1393.21 1271.15 1389.26 C 1264.83 1420.05 1253.89 1451.26 1245.94 1481.78 C 1244.36 1487.84 1242.38 1494.65 1240.23 1500.48 L 1173.59 1377.72 C 1165.78 1363.29 1157.6 1349.17 1150.48 1334.38 C 1148.33 1329.92 1146.03 1326.09 1143.17 1322.05 C 1143.19 1308.57 1148 1281.15 1149.37 1266.02 C 1154.98 1204.26 1163.78 1140.85 1168.46 1079.17 C 1171.11 1074.91 1171.42 1054.69 1171.53 1048.93 z"/>
<path transform="translate(0,0)" fill="rgb(225,193,113)" d="M 792.575 526.437 C 798.841 530.18 817.568 585.912 820.945 596.495 C 844.77 596.17 876.418 595.757 900.025 597.667 C 892.076 607.02 849.281 640.088 837.91 647.902 C 844.502 668.056 854.663 698.573 857.942 718.919 C 837.087 707.142 813.797 691.812 793.184 678.958 C 772.615 691.475 749.577 708.079 728.738 719.188 C 731.639 699.657 742.732 666.476 748.915 646.638 C 738.021 639.514 694.848 606.523 686.623 598.01 C 706.17 595.28 745.092 595.835 765.869 595.89 C 770.831 579.908 785.61 540.553 792.575 526.437 z"/>
<path transform="translate(0,0)" fill="url(#Gradient3)" d="M 1025.05 444.515 C 1029.69 448.846 1044.76 494.913 1047.57 503.993 C 1069.35 503.774 1091.12 504.05 1112.88 504.819 C 1099.02 517.918 1077.08 534.912 1061.65 546.799 C 1067.08 560.455 1075.26 590.818 1078.93 605.099 C 1064.39 597.68 1039.32 580.4 1024.08 571.075 C 1009.28 581.604 985.954 595.971 969.904 605.019 C 973.479 588.267 982.988 563.384 987.974 545.398 C 970.135 532.56 952.727 519.133 935.779 505.14 C 952.542 504.167 986.832 502.477 1002.41 503.897 C 1007.78 488.142 1018.32 459.226 1025.05 444.515 z"/>
<path transform="translate(0,0)" fill="url(#Gradient2)" d="M 561.537 879.514 C 566.137 883.078 581.354 928.541 583.938 936.821 C 605.827 936.855 627.713 937.274 649.587 938.078 C 633.846 952.64 616.46 965.84 599.267 978.649 C 604.688 998.292 612.826 1018.53 615.982 1038.61 C 599.332 1028.73 578.42 1014.27 562.476 1003.23 C 544.684 1014.1 526.856 1028.99 507.899 1039.17 C 511.766 1023.06 520.572 994.343 526.42 979.291 C 509.469 965.006 490.377 954.129 472.799 938.285 C 494.904 937.39 517.025 936.962 539.147 937.003 C 545.83 918.997 553.477 896.654 561.537 879.514 z"/>
<path transform="translate(0,0)" fill="url(#Gradient1)" d="M 671.256 1678.1 C 668.634 1674.88 666.847 1669.57 665.12 1665.73 C 658.275 1650.48 648.453 1619.08 637.196 1608.69 C 615.086 1588.27 517.683 1615.14 477.027 1588.85 C 446.005 1568.78 446.669 1536.92 446.904 1503.88 L 447.271 1452.91 C 447.538 1408.04 443.498 1410.24 404.409 1391.69 C 376.186 1378.3 333.004 1366.16 310.66 1345.23 C 279.262 1315.83 293.838 1281.44 307.1 1248.31 L 328.591 1194.61 C 332.379 1185.11 338.715 1172.64 337.675 1162.26 C 334.635 1131.92 242.37 1076.63 233.746 1033.51 C 226.502 997.296 250.675 975.346 274.19 952.586 L 311.23 916.745 C 343.073 885.877 343.897 881.119 325.126 840.691 C 318.752 826.964 313.283 809.132 306.93 795.708 C 288.508 756.779 280.134 717.414 321.699 690.001 C 332.335 682.978 345.421 678.33 357.473 673.013 L 408.069 650.497 C 445.553 634.124 446.79 632.751 446.993 591.201 C 447.14 574.277 447.183 557.351 447.123 540.426 C 447.081 528.429 446.455 510.412 448.487 499.208 C 450.021 490.529 453.255 482.24 458.004 474.816 C 478.207 443.474 509.311 444.026 541.219 443.397 C 558.395 442.995 575.577 442.919 592.757 443.169 C 640.894 443.627 638.314 442.799 656.968 401.37 C 666.844 379.438 680.514 340.567 692.68 321.931 C 699.325 311.54 708.836 303.294 720.064 298.189 C 751.519 283.698 772.678 295.45 802.734 307.179 L 854.634 327.54 C 864.43 331.429 875.673 337.325 886.421 336.717 C 909.257 335.426 969.41 244.275 1011.48 236.161 C 1048.42 229.034 1068.48 252.628 1092.47 275.713 L 1133.88 315.515 C 1163.01 343.688 1160.07 341.071 1199.37 325.797 L 1251.39 305.456 C 1263.11 300.884 1273.74 296.265 1285.79 293.16 C 1313.82 285.938 1342.6 300.097 1357.24 324.293 C 1363.77 335.085 1367.52 346.04 1372.57 357.736 L 1392.91 404.996 C 1409.36 443.368 1412 442.646 1453.12 443.015 L 1507.27 443.445 C 1511.87 443.485 1517.6 443.796 1522.01 443.598 C 1553.36 442.339 1583.14 454.978 1595.44 485.492 C 1602.78 503.709 1601.11 519.824 1601.17 539.012 L 1601.52 591.011 C 1601.84 634.597 1604.61 635.156 1644.34 652.739 C 1671.37 664.704 1701.38 676.23 1727.17 690.213 C 1748.99 702.045 1762.1 732.441 1756.2 756.453 C 1753.09 770.187 1747.23 783.586 1742.07 796.642 C 1735.43 813.646 1728.64 830.594 1721.71 847.485 C 1705.96 885.667 1707.51 886.686 1736.87 915.919 L 1772.51 951.204 C 1790.2 968.494 1809.17 983.189 1814.71 1008.47 C 1817.26 1021.82 1815.74 1031.97 1811.04 1044.73 C 1800.24 1066.35 1781.17 1082.88 1764.41 1100.16 C 1751.5 1113.48 1737.97 1127.67 1724.48 1140.26 L 1722.83 1139.9 C 1716.23 1145.65 1713.26 1150.37 1710.01 1158.38 C 1704.34 1172.33 1729.18 1206.61 1727.44 1218.65 C 1725.52 1222.28 1718.11 1229.99 1717.75 1231.4 C 1714.71 1243.52 1718.93 1243.98 1705.74 1248.66 C 1707.68 1251.38 1710.78 1249.94 1711.01 1257.01 L 1709.15 1258.33 C 1702.31 1256.14 1703.52 1260.9 1694.11 1257.54 C 1691.16 1259.19 1689.02 1262.53 1685.95 1262.64 C 1681.34 1262.79 1678.1 1267.24 1674.06 1267.6 L 1672.93 1264.95 C 1662.22 1265.58 1650.35 1290.26 1639.26 1284.38 C 1638.82 1278.35 1671.47 1210.88 1668.24 1195.83 C 1671.03 1181.77 1675.57 1167.34 1678.34 1153.15 C 1689.58 1095.04 1693.07 1035.71 1688.72 976.688 C 1677.9 832.519 1618.44 686.915 1519.72 580.183 C 1511.04 570.794 1501.84 560.565 1492.16 552.241 C 1480.32 538.675 1465.11 525.633 1450.93 514.629 C 1351.78 427.35 1213.56 372.807 1082.6 361.311 C 1047.97 358.531 1013.18 358.36 978.52 360.798 C 804.796 372.459 642.631 451.986 527.047 582.202 C 408.659 716.215 348.77 892 360.714 1070.42 C 373.907 1246.23 455.509 1409.86 588.002 1526.17 C 621.601 1555.49 659.064 1580.6 697.42 1603.21 C 706.207 1607.9 721.071 1615.21 729.158 1620.25 C 735.557 1623.21 741.623 1626.03 747.886 1629.27 C 743.464 1634.3 745.771 1645.47 752.76 1646.3 C 758.93 1647.04 763.196 1648.23 768.349 1651.77 L 771.92 1650.96 C 780.658 1658.39 777.762 1674.69 781.338 1684.56 C 781.548 1685.14 786.083 1686.72 787.522 1688.97 C 789.624 1692.26 788.105 1695.42 790.439 1694.74 C 799.303 1692.19 797.108 1688.48 806.94 1689.92 L 808.902 1688.58 L 809.021 1683.45 L 810.355 1682.97 L 812.91 1684.82 C 824.492 1679.75 825.22 1661.8 838.384 1664.56 C 841.8 1665.27 848.525 1673.52 851.945 1673.96 C 854.858 1674.34 856.634 1671.54 858.417 1676.94 L 859.667 1676.32 C 863.167 1680.98 868.456 1690.06 873.873 1691.18 C 885.242 1693.52 886.332 1693.97 890.646 1705.01 L 892.962 1706.42 L 891.464 1708.89 C 892.154 1709.08 884.995 1707.12 886.273 1707.22 C 876.105 1706.39 857.464 1715.7 847.35 1719.48 C 844.675 1720.48 847.587 1719.68 844.189 1720.46 L 844.8 1721.9 C 839.587 1724.15 834.398 1726.52 828.991 1728.25 C 815.499 1733.94 767.601 1752.12 756.11 1754.13 C 749.641 1755.29 743.018 1755.3 736.548 1754.14 C 719.198 1751.18 705.432 1742.58 695.216 1728.25 C 691.791 1725.1 688.309 1717.53 686.507 1713.24 C 681.281 1702.25 675.797 1689.35 671.256 1678.1 z"/>
<path transform="translate(0,0)" fill="rgb(184,130,43)" d="M 695.216 1728.25 C 701.847 1731.93 715.319 1748.24 724.048 1747.83 C 725.647 1747.76 731.519 1743.74 732.814 1742.38 C 737.061 1738.02 749.085 1741.57 748.741 1733.73 C 748.606 1730.67 748.694 1728.26 750.625 1725.96 C 758.603 1729.32 773.686 1714.39 782.603 1719.26 C 784.666 1720.38 786.577 1720.03 788.822 1719.93 L 789.749 1719.11 L 789.25 1717.78 C 787.602 1713.28 787.14 1712.61 787.051 1708.01 L 788.04 1706.04 L 790.564 1705.25 L 791.817 1706.34 C 791.822 1706.67 791.827 1707 791.833 1707.33 C 792.026 1713.89 794.905 1720.08 799.797 1724.46 C 804.577 1728.74 814.65 1729.42 820.977 1729.3 C 823.477 1729.25 824.64 1727.62 828.991 1728.25 C 815.499 1733.94 767.601 1752.12 756.11 1754.13 C 749.641 1755.29 743.018 1755.3 736.548 1754.14 C 719.198 1751.18 705.432 1742.58 695.216 1728.25 z"/>
<path transform="translate(0,0)" fill="rgb(184,130,43)" d="M 671.256 1678.1 L 672.7 1676.24 L 675.764 1677.61 L 678.353 1676.16 C 682.346 1677.85 688.735 1683.57 690.612 1687.35 C 689.475 1692.58 685.719 1697.43 685.357 1701.36 C 685.134 1703.78 687.372 1709.63 686.507 1713.24 C 681.281 1702.25 675.797 1689.35 671.256 1678.1 z"/>
<path transform="translate(0,0)" fill="rgb(184,130,43)" d="M 697.42 1603.21 C 706.207 1607.9 721.071 1615.21 729.158 1620.25 C 723.254 1629.48 712.308 1625.08 705.613 1619.18 C 698.748 1613.13 698.242 1612.01 697.42 1603.21 z"/>
<path transform="translate(0,0)" fill="rgb(184,130,43)" d="M 1811.04 1044.73 C 1810.18 1041.01 1808.13 1039.27 1806.11 1036.04 L 1807.18 1034.02 C 1808.78 1033.5 1810.02 1033.12 1811.66 1032.71 L 1812.88 1032.43 C 1815.04 1023.49 1812.42 1015.97 1814.71 1008.47 C 1817.26 1021.82 1815.74 1031.97 1811.04 1044.73 z"/>
<path transform="translate(0,0)" fill="rgb(184,130,43)" d="M 716 1657.49 L 718.419 1657.43 C 726.891 1662.23 731.514 1689.89 719.814 1691.51 C 717.027 1690.21 717.034 1690.43 715.33 1687.93 C 712.242 1685.48 700.907 1677.75 700.053 1675.61 C 702.935 1668.78 701.499 1662.22 707.751 1658.09 C 712.34 1660.28 712.088 1660.16 716 1657.49 z"/>
<path transform="translate(0,0)" fill="rgb(184,130,43)" d="M 797.028 1693.6 C 798.213 1697.08 798.183 1696.84 797.933 1700.5 L 796.5 1701.75 C 795.051 1701.04 795.758 1701.62 794.845 1699.57 C 795.064 1696.1 794.852 1696.25 797.028 1693.6 z"/>
<path transform="translate(0,0)" fill="rgb(184,130,43)" d="M 1668.24 1195.83 C 1671.47 1210.88 1638.82 1278.35 1639.26 1284.38 C 1650.35 1290.26 1662.22 1265.58 1672.93 1264.95 L 1674.06 1267.6 C 1678.1 1267.24 1681.34 1262.79 1685.95 1262.64 C 1689.02 1262.53 1691.16 1259.19 1694.11 1257.54 C 1703.52 1260.9 1702.31 1256.14 1709.15 1258.33 L 1711.01 1257.01 C 1710.78 1249.94 1707.68 1251.38 1705.74 1248.66 C 1718.93 1243.98 1714.71 1243.52 1717.75 1231.4 C 1718.11 1229.99 1725.52 1222.28 1727.44 1218.65 C 1729.18 1206.61 1704.34 1172.33 1710.01 1158.38 C 1713.26 1150.37 1716.23 1145.65 1722.83 1139.9 L 1724.48 1140.26 C 1716.56 1149.27 1714.2 1151.14 1710.58 1162.77 C 1714.54 1180.48 1722.02 1192.2 1726.79 1208.32 C 1738.92 1249.31 1773.67 1293.27 1747.21 1334.38 C 1742.68 1341.41 1736.8 1347.48 1729.92 1352.23 C 1720.03 1359.12 1701.1 1366.58 1689.24 1371.77 L 1643.71 1392.22 C 1605.12 1409.41 1600.67 1410.99 1601.17 1453.83 L 1601.8 1503.38 C 1602.2 1535.76 1604.64 1561.56 1576.49 1584.61 C 1569.29 1590.54 1557.16 1597.14 1547.78 1598.33 C 1517.2 1602.2 1483.86 1600.52 1452.95 1600.85 C 1411.01 1601.31 1410.08 1601.56 1393.8 1640.04 L 1373.29 1688.19 C 1360.04 1719.28 1350.59 1745.59 1314.18 1753.91 C 1291.34 1759.14 1269.34 1747.06 1248.56 1739.41 C 1232.29 1733.41 1216.57 1727.19 1200.45 1720.94 C 1162.38 1704.9 1160.66 1703.87 1131.63 1732.62 L 1090.39 1773.96 C 1081.83 1782.44 1070.1 1794.8 1060.79 1801.52 C 1038.97 1817.26 1009.88 1816.81 988.026 1801.33 C 977.555 1793.9 967.441 1782.97 958.197 1773.78 C 944.344 1759.93 930.371 1746.2 916.279 1732.59 C 905.844 1722.5 893.393 1706.73 877.718 1710.12 C 866.803 1712.49 855.236 1719.54 844.8 1721.9 L 844.189 1720.46 C 847.587 1719.68 844.675 1720.48 847.35 1719.48 C 857.464 1715.7 876.105 1706.39 886.273 1707.22 C 884.995 1707.12 892.154 1709.08 891.464 1708.89 L 892.962 1706.42 L 890.646 1705.01 C 886.332 1693.97 885.242 1693.52 873.873 1691.18 C 868.456 1690.06 863.167 1680.98 859.667 1676.32 L 858.417 1676.94 C 856.634 1671.54 854.858 1674.34 851.945 1673.96 C 848.525 1673.52 841.8 1665.27 838.384 1664.56 C 825.22 1661.8 824.492 1679.75 812.91 1684.82 L 810.355 1682.97 L 809.021 1683.45 L 808.902 1688.58 L 806.94 1689.92 C 797.108 1688.48 799.303 1692.19 790.439 1694.74 C 788.105 1695.42 789.624 1692.26 787.522 1688.97 C 786.083 1686.72 781.548 1685.14 781.338 1684.56 C 777.762 1674.69 780.658 1658.39 771.92 1650.96 L 768.349 1651.77 C 763.196 1648.23 758.93 1647.04 752.76 1646.3 C 745.771 1645.47 743.464 1634.3 747.886 1629.27 C 774.793 1641.3 802.461 1651.55 830.71 1659.96 C 1147.17 1755.05 1481.56 1605.82 1624.7 1310.71 C 1643.08 1272.82 1656.17 1235.97 1668.24 1195.83 z"/>
</svg>