<?xml version="1.0" encoding="UTF-8"?>
<svg id="Layer_1" data-name="Layer 1" xmlns="http://www.w3.org/2000/svg" viewBox="0 0 154.04 154.04">
  <defs>
    <style>
      .cls-1 {
        fill: #10375b;
      }

      .cls-2 {
        fill: #a4862f;
      }

      .cls-3 {
        fill: #e6e6e8;
      }
    </style>
  </defs>
  <circle class="cls-3" cx="77.02" cy="77.02" r="77.02"/>
  <g>
    <path class="cls-1" d="M80.97,58.73l1.69,11.48c.09.64.69,1.26,1.33,1.37l11.43,2.01c1.35.24,1.44.93.22,1.53l-10.4,5.15c-.58.29-.98,1.05-.89,1.69l1.62,11.49c.19,1.35-.44,1.66-1.39.68l-8.11-8.29c-.45-.46-1.3-.61-1.88-.33l-10.43,5.09c-1.23.6-1.71.1-1.08-1.11l5.38-10.28c.3-.57.18-1.42-.27-1.89l-8.06-8.35c-.95-.98-.62-1.6.72-1.37l11.44,1.94c.64.11,1.41-.27,1.71-.84l5.45-10.24c.64-1.21,1.33-1.09,1.53.26ZM133.23,52.32l-14.31,14.31c-.34.34-.53,1.01-.43,1.49.67,3.11,1,6.34.94,9.66-.39,22.11-18.19,40.51-40.28,41.59-25.59,1.25-46.47-20.14-44.4-45.89,1.58-19.61,19.72-37.48,39.35-38.78,4.54-.3,8.95.1,13.12,1.14.49.12,1.18-.06,1.54-.42l14.13-14.13c.91-.91.71-2.12-.48-2.64-8.41-3.66-17.77-5.55-27.61-5.22-31.43,1.06-59.58,28.58-61.3,59.97-2.08,37.86,28.85,68.96,66.65,67.15,31.15-1.49,58.89-29.2,60.41-60.35.47-9.72-1.23-19-4.68-27.39-.5-1.22-1.72-1.44-2.65-.5Z"/>
    <path class="cls-2" d="M83.94,69.13l-2.07-12.66c-.05-.31.05-.62.27-.84l27.15-26.81c.6-.6,1.63-.18,1.64.67l.24,12.44c0,.49.38.89.87.94l12.57,1.24c.82.08,1.17,1.09.57,1.66l-27.66,26.18c-.23.21-.54.31-.84.25l-11.97-2.28c-.4-.08-.71-.39-.77-.79Z"/>
  </g>
</svg>