<svg width="700" height="700" viewBox="0 0 700 700" fill="none" xmlns="http://www.w3.org/2000/svg">
<g clip-path="url(#clip0_309_21516)">
<g clip-path="url(#clip1_309_21516)">
<path fill-rule="evenodd" clip-rule="evenodd" d="M-14.8254 1224.77C112.201 1244.06 241.532 1245.03 369.614 1238.03C420.303 1234.23 471.149 1233.55 521.798 1238.4C551.727 1240.63 682.949 1250.66 693.67 1223.85C686.923 1081.11 673.256 937.157 631.331 799.878C614.089 751.133 599.28 710.676 565.628 670.339C555.022 659.326 532.15 636.228 519.045 628.694C507.69 622.169 502.944 624.497 496.425 613.475C489.946 601.299 485.167 580.964 475.968 572.373C466.602 563.625 452.721 566.755 435.516 569.572C438.677 526.858 418.96 515.98 391.798 507.857C344.053 489.635 296.901 498.79 284.884 556.911C262.602 556.911 250.087 566.499 236.556 575.713C231.025 579.479 234.873 589.074 228.266 592.034C216.043 596.386 194.442 595.32 182.673 600.676C129.154 625.032 81.4862 660.352 50.1817 711.934C-19.9992 822.063 -68.2081 1054.05 -59.8658 1184.58C-63.5208 1190.31 -58.4665 1198.53 -57.1818 1204.69C-55.5601 1210.05 -50.3087 1213.62 -44.8281 1213.01C-37.1801 1221.23 -25.3507 1223.07 -14.8254 1224.77Z" fill="#FBD4C5"/>
<path fill-rule="evenodd" clip-rule="evenodd" d="M249.447 565.639C257.273 557.473 269.546 552.598 281.168 552.873L281.712 552.889L285.657 553.066L283.021 566L282.888 566.613L282.351 568.859L281.635 571.799L281.38 572.88L281.111 574.076C281.069 574.271 281.027 574.463 280.987 574.653L280.869 575.219L279.745 580.714L279.955 581.203L279.895 582.451C279.72 586.965 280.693 589.447 282.836 590.243L283.007 590.302L284.229 590.694L285.227 592.858C287.522 597.807 289.663 602.13 291.861 606.202C298.272 618.077 305.92 629.948 314.739 641.877C323.118 653.212 331.846 664.032 340.921 674.306C345.001 678.925 349.312 683.564 353.899 688.285L357.849 692.33L359.104 693.601L359.949 694.444L361.003 695.475L362.521 696.923L363.622 698.006L363.979 698.345C364.428 698.762 364.774 699.044 365.087 699.245L365.203 699.316L365.551 699.523L383.859 718.777L390.325 722.333L393.396 724.035L394.018 722.797L394.144 722.399L400.949 707.456L405.104 698.304C413.632 679.474 420.267 664.495 426.335 650.232L427.09 648.453L429.327 643.146L430.512 640.315C435.935 627.318 439.942 617.288 443.527 607.544L444.037 606.153L444.792 604.071L445.913 600.931L446.117 600.395C447.091 597.902 444.699 588.841 442.342 583.877L442.209 583.6L441.596 582.37L440.933 581.073C439.375 578.032 438.247 574.657 437.298 570.572C437.144 569.91 436.999 569.244 436.864 568.573L436.666 567.561L436.541 566.897L436.366 565.967L436.116 564.636L441.389 563.754L444.282 563.283L445.543 563.085C447.178 562.832 448.633 562.625 450.003 562.451L450.512 562.388L451.429 562.279L451.462 562.46L453.343 562.646L454.74 562.79C461.621 563.518 466.928 564.32 470.697 565.208L471.069 565.297L471.742 565.467L472.049 565.549C475.477 566.471 478.119 568.465 480.209 571.406C481.643 573.423 482.573 575.355 484.046 579.016L484.574 580.337L486.327 584.67C486.532 585.198 486.849 586.04 487.278 587.2L488.765 591.249L496.22 611.835L503.849 615.849C507.395 617.704 509.989 619.042 511.27 619.674L511.724 619.895L512.049 620.044L514.678 621.086L514.396 621.907L514.714 622.089C546.121 640.155 570.342 667.948 589.198 704.846L589.768 705.967L590.352 707.129C605.381 737.183 616.148 770.724 626.661 815.502L627.311 818.286L627.823 820.5L630.564 832.45C640.863 877.568 647.94 911.212 653.796 944.224L654.177 946.376L655.153 951.984C662.508 994.713 668.666 1037.05 673.593 1078.98L674.411 1086.04C676.467 1104.05 678.325 1122.68 680.34 1145.04L680.61 1148.04L681.497 1158.09C682.442 1168.91 683.305 1179.71 684.087 1190.49L684.471 1195.88L685.26 1207.59L685.723 1214.27L685.779 1215.17L685.967 1218.65L686.019 1219.47C686.09 1220.51 686.169 1221.39 686.271 1222.21L686.351 1222.81L686.44 1223.39C686.7 1224.99 687.214 1226.42 688.064 1228.01L688.284 1228.41L689.743 1231.02L687.097 1232.42C673.302 1239.68 646.14 1242.88 608.878 1243.05L607.746 1243.05H605.416C587.311 1243.04 568.121 1242.34 548.098 1241.15L543.57 1240.87L539.791 1240.63C538.163 1240.53 536.578 1240.42 534.935 1240.31L532.414 1240.13L521.886 1239.36C474.527 1234.82 424.862 1234.9 370.139 1238.99C227.467 1246.8 104.322 1243.51 -11.4223 1226.23L-14.9274 1225.7L-17.5103 1225.28L-19.0509 1225.02C-31.3281 1222.93 -39.037 1220.24 -45.0523 1214.6L-45.3673 1214.31L-45.6299 1214.05L-45.7437 1214.05C-51.8004 1214.02 -57.3451 1210.06 -59.4024 1204.22L-59.5093 1203.9L-59.645 1203.47L-59.7387 1203.03C-59.8345 1202.61 -59.9542 1202.16 -60.0997 1201.67L-60.2137 1201.28L-61.1699 1198.15L-57.9486 1197.56C-57.6711 1197.51 -57.3825 1197.32 -57.1026 1196.91L-56.8342 1196.53L-56.3697 1195.89L-55.2476 1194.35C-54.0525 1192.67 -53.4645 1191.62 -53.1731 1190.56C-52.9153 1189.63 -52.8187 1188.43 -52.8467 1186.76L-52.8683 1185.95L-52.9953 1182.99C-53.0036 1182.75 -53.0092 1182.55 -53.0129 1182.35L-53.0168 1182.05L-53.0189 1177.89L-53.0086 1173.32C-53.0012 1171.32 -52.99 1169.37 -52.9747 1167.46L-52.9486 1164.62L-52.9227 1162.33C-52.7676 1149.67 -52.3958 1137.01 -51.8074 1124.37C-50.6572 1099.71 -48.6842 1075.07 -45.8929 1050.53C-40.1298 999.87 -31.302 950.734 -19.2933 903.251L-18.0871 898.509C-5.10256 847.763 7.41641 808.642 23.3284 772.464C43.5662 726.451 68.2421 688.582 99.3117 658.308C116.394 641.661 135.311 627.611 155.415 616.835C164.661 611.88 174.487 607.482 185.025 603.526L186.535 602.963L188.973 602.073L190.843 601.382L196.869 599.131C198.136 598.656 199.514 598.125 201.144 597.484L202.153 597.086L212.944 592.782L214.736 592.077L216.728 591.302L218.193 590.74C220.587 589.826 222.756 589.029 224.768 588.327L225.958 587.917L227.038 587.553L231.643 585.96L231.553 590.149C231.494 592.934 232.211 595.039 233.805 596.551L233.858 596.599L233.913 596.643L233.963 596.676L234.241 596.668L235.33 596.663C235.442 596.601 235.548 596.528 235.646 596.445C237.195 595.129 237.915 593.366 238.614 589.321L238.799 588.195L239.122 586.087L239.251 585.289C239.716 582.482 240.122 580.932 240.911 579.159C242.051 576.595 243.559 574.099 245.333 571.805L245.747 571.279L247.404 569.287L247.658 568.973C248.239 568.229 248.537 567.704 248.661 567.222L248.691 567.092L248.856 566.255L249.447 565.639Z" fill="#05051A"/>
<path fill-rule="evenodd" clip-rule="evenodd" d="M510.957 625.464C510.177 625.03 510.863 623.915 511.647 624.284C549.319 641.956 578.219 672.962 598.553 708.787C619.61 745.881 631.611 787.998 641.957 829.162L642.33 830.649C653.363 874.685 662.744 919.176 671.189 963.775C679.742 1008.94 686.608 1054.38 692.131 1100.02C694.863 1122.58 697.298 1145.18 699.198 1167.83C700.147 1179.15 701.01 1190.47 701.785 1201.8C702.094 1206.34 702.386 1210.87 702.636 1215.4L702.815 1218.81C702.97 1221.89 703.336 1224.99 702.574 1228.03C701.916 1230.65 700.526 1233.03 699.304 1235.44C696.887 1240.2 690.261 1239.42 687.656 1235.44L686.9 1234.28C685.172 1231.61 683.737 1229.13 683.195 1225.81C682.671 1222.59 682.652 1219.22 682.416 1215.97C681.984 1209.99 681.615 1204.01 681.195 1198.03C680.313 1185.44 679.322 1172.86 678.226 1160.28C676.056 1135.46 673.73 1110.67 670.872 1085.92C665.795 1041.93 659.423 998.059 651.912 954.422C644.574 911.795 635.296 869.599 625.617 827.457L624.615 823.097C607.669 749.519 581.551 664.785 510.957 625.464ZM109.7 913.58C109.977 912.844 111.169 912.674 111.37 913.58C113.908 925.005 114.159 936.773 114.547 948.471C114.929 960.01 114.913 971.602 114.745 983.148C114.125 1025.58 112.96 1067.98 111.953 1110.41C111.449 1131.63 110.976 1152.86 110.614 1174.08C110.477 1182.04 110.361 1190 110.266 1197.96L110.148 1208.46C110.09 1213.11 109.968 1217.69 109.402 1222.33C109.029 1225.38 108.233 1228.29 106.549 1230.9C105.354 1232.76 103.651 1233.7 101.991 1234.96L101.68 1235.2C99.5625 1236.88 97.332 1236.89 95.2347 1235.2L94.6257 1234.72C92.6224 1233.15 90.8909 1231.93 89.6119 1229.45C87.8326 1226.01 87.5477 1222.26 87.2453 1218.47C86.7864 1212.71 87.0907 1206.87 87.15 1201.1C87.2687 1189.52 87.4291 1177.94 87.6323 1166.36C88.3781 1123.9 89.8521 1081.43 92.5385 1039.05C93.8041 1019.08 95.5202 999.051 97.8221 979.167L98.2605 975.44C98.9587 969.59 99.5955 963.636 100.313 957.662C89.6012 950.127 80.1854 940.986 72.1562 930.615C71.565 929.852 72.5383 928.782 73.2519 929.52C81.4562 938.015 90.8633 944.788 101.278 950.113C102.984 937.608 105.33 925.17 109.7 913.58ZM288.654 535.076C288.801 534.962 289.03 534.913 289.17 535.076C291.473 537.76 291.006 541.864 291.08 545.266L291.089 545.583C291.254 550.556 291.285 555.514 291.268 560.49L291.217 576.33V576.33C291.21 578.508 291.033 580.775 291.145 582.966L291.203 583.814V583.814C292.413 585.052 292.975 586.842 292.564 588.64C292.491 590.946 291.285 592.871 289.526 594.08L293.296 599.428V599.428L297.069 604.774C304.847 615.804 312.71 626.737 320.904 637.464C329.26 648.402 338.174 658.927 347.503 669.047C352.06 673.992 356.695 678.868 361.438 683.635C363.365 685.573 365.34 687.462 367.294 689.373L369.237 691.293C370.386 692.441 371.831 693.577 372.593 695.032C373.041 695.891 373.143 698.007 373.304 698.357C374.743 701.52 372.288 706.563 368.208 704.985L368.393 704.862C369.136 704.345 368.66 704.338 366.964 704.84C365.895 704.836 364.892 704.59 363.955 704.103L363.676 703.949C362.356 703.279 361.179 701.981 360.107 700.944L359.841 700.69C357.39 698.394 355.053 695.958 352.704 693.557C347.801 688.549 343.009 683.434 338.369 678.181C329.112 667.702 320.337 656.798 312.027 645.555C303.562 634.104 295.694 622.065 288.928 609.532C286.36 604.775 284.006 599.928 281.75 595.023C277.357 593.613 276.337 588.942 276.643 583.678C275.022 579.904 273.562 576.052 272.698 572.116C272.581 571.576 273.274 571.068 273.689 571.539C275.094 573.136 276.395 574.835 277.645 576.579C278.4 572.889 279.355 569.493 279.804 567.327L281.752 557.771V557.771C270.777 557.2 258.752 561.708 251.186 569.601C250.78 571.657 249.198 573.128 247.656 575.049C245.894 577.246 244.357 579.71 243.21 582.288C240.668 588.001 242.103 596.42 237.169 600.612C236.654 601.049 236.08 601.352 235.486 601.54C237.828 613.02 236.765 625.671 236.714 637.318L236.713 638.343C236.724 651.379 236.289 664.425 235.785 677.45L235.273 690.341C234.609 707.533 234.177 724.734 235.848 741.831C243.476 735.076 251.363 728.628 259.522 722.486C264.886 718.447 270.358 714.551 275.93 710.801L280.457 707.776C285.881 704.139 291.438 700.396 297.377 697.791C305.146 694.385 312.534 695.555 320.034 699.049C327.503 702.529 334.75 706.571 342.076 710.342C349.528 714.177 356.995 717.98 364.458 721.792C369.401 724.318 376.644 726.598 380.27 731.248C380.502 730.219 380.771 729.193 381.086 728.171C380.726 726.613 380.865 724.929 381.739 723.323C393.922 700.938 405.194 678.018 416.387 655.126C422.053 643.541 427.439 631.819 433.116 620.241L438.634 608.964C439.556 607.086 440.481 605.209 441.41 603.334C442.803 600.528 444.252 597.75 445.66 594.95C446.255 593.768 447.001 592.593 447.581 591.399L447.855 590.801C447.868 590.769 449.205 586.565 448.172 586.966L448.083 587.009C447.556 587.307 447.134 586.644 447.476 586.221C448.936 584.415 450.97 586.015 451.803 587.686C454.099 592.286 449.892 599.506 448.274 603.911L448.185 604.157C443.164 618.371 437.477 632.319 431.651 646.218C420.481 672.866 408.48 699.104 396.507 725.389L396.365 725.841V725.841C398.918 723.884 401.644 722.107 403.979 720.378C409.868 716.016 415.929 711.868 421.981 707.734C433.079 700.151 444.478 693.069 456.065 686.267L458.385 684.91C464.173 681.538 469.907 678.804 476.777 679.816C483.16 680.757 489.094 684.185 494.86 686.97L495.456 687.256L513.273 695.727C511.369 688.131 509.306 680.572 507.155 673.042C502.958 658.353 498.341 643.788 493.333 629.353C488.657 615.867 483.601 602.527 478.253 589.294L476.643 585.322C474.463 579.873 472.295 573.931 466.063 572.254C459.836 570.577 452.692 573.064 447 569.514C446.483 569.191 446.547 568.338 447.174 568.181L450.686 567.296C457.281 565.655 465.012 564.005 471.248 565.6C478.033 567.339 483.647 573.034 486.94 578.954C490.6 585.54 493.18 592.91 495.959 599.933L496.399 601.039C499.587 608.986 502.654 616.982 505.588 625.028C511.455 641.109 516.796 657.385 521.63 673.807C523.96 681.722 526.17 689.674 528.294 697.646C528.905 699.939 529.912 702.718 530.739 705.618C531.686 706.542 532.582 707.572 533.423 708.748C534.819 710.698 533.817 712.985 532.083 714.153C532.015 716.148 531.572 718.024 530.512 719.633C526.375 725.913 515.438 724.295 515.882 715.852C515.949 714.56 516.453 713.326 517.215 712.284L517.194 712.115V712.115L517.107 711.806V711.806C515.208 710.896 513.302 709.881 511.292 708.889L492.592 699.649V699.649C487.177 696.972 481.174 692.837 475.151 691.817C469.537 690.866 463.613 695.049 458.788 697.573L458.475 697.735C446.813 703.713 435.236 709.889 423.706 716.116C418.077 719.156 412.521 722.323 406.914 725.399C402.226 727.972 397.166 731.665 391.896 733.117C389.645 734.867 386.971 734.632 384.822 733.309C385.804 739.391 385.744 745.632 386.046 751.85C386.451 760.162 386.513 768.498 386.647 776.822L386.701 779.943C387.055 798.344 387.244 816.751 387.314 835.157C387.563 900.698 386.839 966.258 386.67 1031.8C386.584 1064.73 385.932 1097.69 385.076 1130.6C384.713 1144.55 383.955 1158.48 383.136 1172.41L382.685 1180.01C381.731 1196.04 381.169 1212.24 378.201 1228.05C377.814 1230.12 374.324 1230.17 373.981 1228.05C371.25 1211.11 371.098 1193.8 370.573 1176.65L370.462 1173.23C369.831 1154.82 369.532 1136.43 369.596 1118.01C369.83 1052.45 371.534 986.919 372.928 921.37C373.629 888.436 374.101 855.488 375.19 822.564C375.734 806.091 376.351 789.628 377.082 773.161C377.409 765.808 377.723 758.464 378.211 751.122L378.431 747.976C378.583 745.924 378.706 743.896 378.854 741.888C372.22 744.311 366.153 739.824 360.185 736.755C353.307 733.217 346.432 729.673 339.551 726.141L332.665 722.616V722.616L318.883 715.584C312.678 712.417 307.897 709.266 301.278 712.98C277.434 726.357 255.524 744.156 235.667 762.833C231.86 766.415 223.814 765.452 222.849 759.449C218.729 733.804 221.235 707.788 223.339 682.065L224.114 672.516C225.054 661.109 226.077 649.703 227.441 638.343C228.05 633.262 228.658 628.183 229.33 623.111L229.847 619.308C230.687 613.297 231.236 607.321 233.027 601.555C232.462 601.372 231.918 601.073 231.432 600.612C226.047 595.504 228.643 586.639 231.1 580.562C233.526 574.564 237.226 569.329 241.859 564.824C242.869 563.84 244.294 563.207 245.725 563.174C256.958 555.732 269.281 552.017 282.106 556.08C282.467 554.357 282.834 552.637 283.221 550.922L283.614 549.208C284.612 544.953 284.982 537.923 288.654 535.076ZM403.78 1207.15C407.266 1206.19 411.082 1207.2 413.636 1209.76C416.19 1212.31 417.201 1216.13 416.24 1219.61C415.76 1221.33 414.892 1222.82 413.636 1224.08C412.463 1225.25 411.094 1226.08 409.53 1226.58L409.166 1226.69L408.596 1226.92C406.849 1227.39 405.1 1227.39 403.354 1226.92C401.684 1226.46 400.234 1225.61 399.003 1224.39C397.781 1223.16 396.936 1221.71 396.467 1220.04C395.998 1218.29 395.998 1216.54 396.467 1214.8L396.706 1214.23V1214.23C397.186 1212.51 398.054 1211.02 399.309 1209.76C400.573 1208.5 402.064 1207.63 403.78 1207.15ZM610.754 859.806C611.326 859.149 612.255 859.991 611.899 860.69C606.47 871.334 600.418 881.902 594.47 892.275C594.947 895.15 595.419 898.002 595.963 900.782C598.28 912.63 601.118 924.265 602.968 936.226C609.619 979.22 613.072 1022.68 616.034 1066.06C619.006 1109.6 619.386 1153.15 619.832 1196.77C619.871 1200.55 616.963 1204.95 613.066 1205.66C611.282 1205.99 609.947 1205.92 608.166 1205.66C604.111 1205.06 601.574 1200.42 601.4 1196.77C600.237 1172.39 598.673 1148.05 596.86 1123.7C593.648 1080.55 591.685 1037.28 589.09 994.083L588.176 978.985C587.195 962.625 586.298 946.253 586.006 929.869C585.811 919.014 586.392 908.163 586.035 897.32C585.705 887.31 584.69 876.427 586.897 866.592C586.979 866.223 587.561 866.13 587.729 866.483C590.024 871.313 591.478 876.564 592.598 881.923C598.511 874.444 604.534 866.949 610.754 859.806ZM223.392 595.392C224.222 595.33 224.189 596.578 223.392 596.67C211.786 598.016 200.575 602.739 189.617 606.753L188.678 607.095C177.608 611.112 166.814 615.783 156.427 621.35C136.119 632.236 117.47 646.272 100.982 662.34C35.1518 726.485 5.15135 818.984 -16.8314 905.91C-29.0455 954.205 -37.7311 1003.32 -43.3607 1052.81C-46.1444 1077.28 -48.1124 1101.85 -49.2597 1126.45C-49.847 1139.07 -50.2174 1151.69 -50.372 1164.31C-50.4517 1170.78 -50.4751 1177.24 -50.4673 1183.71C-50.4634 1186.67 -49.9345 1190.4 -50.7269 1193.28C-51.462 1195.95 -53.5349 1198.29 -55.0682 1200.51C-56.8855 1203.15 -60.1514 1203.01 -61.9939 1200.51L-62.6734 1199.61C-64.6384 1197 -66.5611 1194.51 -66.8418 1191.1C-67.1423 1187.45 -66.9303 1183.68 -66.9439 1180.02C-66.975 1172.63 -66.8836 1165.23 -66.7359 1157.85C-66.451 1143.68 -65.8929 1129.53 -65.0635 1115.38C-63.3795 1086.69 -60.6074 1058.05 -56.6385 1029.58C-49.5835 978.968 -39.0087 928.843 -25.1573 879.66C-12.0895 833.262 3.39149 787.002 25.4453 744.024C45.922 704.121 72.7847 667 108.231 639.112C124.714 626.143 142.658 615.335 162.004 607.196C171.761 603.091 182.007 599.74 192.428 597.829C202.732 595.94 212.992 596.203 223.392 595.392ZM405.778 1125.14C407.619 1125.13 409.671 1125.53 411.25 1126.55L413.36 1128.18V1128.18C413.932 1128.91 414.501 1129.65 415.068 1130.39C416.387 1132.11 416.562 1134.89 416.287 1136.94C416.225 1138.31 415.818 1139.58 415.068 1140.76L413.461 1142.84V1142.84C411.917 1144.1 410.63 1144.99 408.76 1145.6C407.783 1145.92 406.842 1145.98 405.903 1145.93L405.59 1145.91L405.778 1145.94L405.45 1145.9V1145.9C405.144 1145.88 404.838 1145.84 404.531 1145.8C404.322 1145.78 404.112 1145.76 403.903 1145.73C403.701 1145.71 403.507 1145.71 403.304 1145.73C400.927 1145.95 398.538 1144.6 396.851 1143.05C395.332 1141.66 393.968 1138.7 394.18 1136.6L394.27 1135.73C394.43 1134.25 394.561 1133.67 395.188 1132.18C395.796 1130.74 396.647 1129.46 397.805 1128.38C400.022 1126.32 402.736 1125.16 405.778 1125.14ZM398.422 1016.94C401.576 1013.5 406.993 1013.25 410.905 1015.33C411.858 1015.84 412.733 1016.65 413.573 1017.33C415.689 1019.04 416.521 1022.13 416.637 1024.73C416.753 1027.3 415.397 1030.35 413.573 1032.13L413.13 1032.56V1032.56C412.04 1033.62 410.479 1034.54 408.954 1034.82C406.495 1035.27 404.43 1035.26 402.14 1034.29C400.173 1033.46 398.478 1032.13 397.324 1030.32L397.137 1030.01C397.058 1029.88 396.983 1029.75 396.913 1029.62L396.811 1029.42C394.62 1025.21 395.209 1020.44 398.422 1016.94ZM400.056 908.167C401.479 907.721 402.9 907.658 404.323 907.977C405.288 907.979 406.188 908.223 407.023 908.706C407.929 908.96 408.716 909.419 409.383 910.083C410.187 910.557 410.827 911.197 411.303 912.001C412.249 913.035 412.887 914.247 413.218 915.639L413.599 918.483L413.218 921.328L412.139 923.885V923.885C411.842 924.272 411.544 924.659 411.242 925.044C410.766 925.85 410.124 926.492 409.318 926.969C408.794 927.49 408.193 927.88 407.521 928.15C405.139 929.857 401.966 930.415 399.143 929.637C397.467 929.168 396.011 928.319 394.777 927.093C393.551 925.858 392.703 924.403 392.234 922.728L392.041 921.389C391.792 919.595 391.752 918.601 392.26 916.319C392.483 915.316 393.129 913.901 393.468 913.305C394.915 910.761 397.278 909.018 400.056 908.167ZM523.57 829.915C527.655 829.886 531.739 829.894 535.823 829.939L538.886 829.98C544.015 830.061 548.408 829.532 552.44 833.09C555.366 835.673 554.077 840.005 551.299 841.951C547.09 844.897 541.811 843.415 536.972 843.091C531.87 842.748 526.763 842.464 521.655 842.235C511.763 841.793 501.868 841.511 491.967 841.467C482.088 841.425 472.194 841.518 462.315 841.678C452.263 841.841 441.797 842.777 431.802 841.737C430.429 841.594 430.12 839.789 431.476 839.319C440.894 836.061 451.489 835.005 461.36 833.759C471.541 832.473 481.722 831.563 491.967 830.973C502.491 830.369 513.029 829.989 523.57 829.915ZM400.037 797.913L400.374 797.919C402.172 797.924 403.854 798.347 405.423 799.188L405.758 799.375L407.916 801.041C409.237 802.373 410.152 803.942 410.658 805.748L411.039 808.583V808.583C411.096 810.052 410.788 811.421 410.121 812.692C409.691 814.015 408.956 815.158 407.916 816.125C406.95 817.164 405.805 817.899 404.484 818.33C403.31 818.946 402.053 819.255 400.711 819.255L400.374 819.249C398.45 819.242 396.655 818.757 394.992 817.792L392.833 816.125V816.125C391.511 814.794 390.596 813.225 390.091 811.419L389.709 808.583V808.583C389.654 807.115 389.96 805.744 390.629 804.475C391.058 803.152 391.793 802.008 392.833 801.041C393.799 800.002 394.943 799.267 396.266 798.837C397.439 798.221 398.696 797.912 400.037 797.913V797.913ZM431.655 547.379C433.953 544.051 438.117 547.01 437.521 549.686C437.679 557.201 438.063 564.494 439.773 571.856C440.556 575.226 441.581 578.6 443.163 581.687L443.828 582.987C445.876 587.032 447.465 590.847 444.707 595.285C443.407 597.378 441.058 598.949 438.512 598.839C427.219 598.352 425.667 582.633 424.98 573.858C424.272 564.82 426.474 554.888 431.655 547.379Z" fill="#05051A"/>
<path fill-rule="evenodd" clip-rule="evenodd" d="M380.969 186.519C527.004 191.152 535.812 260.664 535.812 377.238C535.812 493.812 460.055 567.27 432.161 580.097C404.266 592.924 330.815 648.02 264.529 622.63C198.244 597.241 217.439 489.973 217.439 443.883C217.439 397.794 234.933 181.886 380.969 186.519Z" fill="#FBD4C5"/>
<path fill-rule="evenodd" clip-rule="evenodd" d="M239.819 371.521C270.014 248.137 325.136 187.939 405.184 190.926C525.257 195.407 523.991 318.05 516.458 306.867C511.536 299.561 477.079 274.04 413.085 230.301L409.13 227.601L239.819 371.521Z" fill="#A58618"/>
<path fill-rule="evenodd" clip-rule="evenodd" d="M311.276 268.362C326.208 254.933 342.256 242.156 359.207 231.374C376.36 220.465 395.096 213.941 415.345 213.785C413.928 214.923 412.58 216.187 411.211 217.362C407.39 220.64 403.576 223.936 399.763 227.222C392.136 233.805 384.491 240.377 376.962 247.067C362.136 260.252 347.262 273.368 332.466 286.582C304.028 311.978 276.202 337.928 248.976 364.628C249.122 363.977 249.277 363.325 249.432 362.675C258.445 324.949 282.964 293.825 311.276 268.362ZM440.211 541.811C413.394 556.814 382.686 557.397 353.839 547.956C336.54 542.308 320.677 533.575 305.831 523.133C292.917 514.042 281.391 503.959 269.971 493.253C260.569 472.476 252.197 451.737 248.276 429.131C244.764 408.839 244.298 387.769 248.373 367.516C278.51 342.674 308.462 317.627 338.374 292.504C353.607 279.707 368.878 266.981 384.335 254.457C392.184 248.098 399.957 241.642 407.776 235.254C409.066 234.203 410.348 233.153 411.638 232.103C427.782 243.946 445.092 254.098 461.121 266.134C469.513 272.444 477.673 279.163 485.444 286.23C489.519 289.936 493.498 293.757 497.379 297.675C500.93 301.254 504.355 306.387 509.391 307.74C510.08 307.923 510.729 307.962 511.34 307.875C518.074 366.952 522.857 430.745 494.012 484.396C481.428 507.8 463.586 528.724 440.211 541.811ZM428.326 215.428C428.423 215.137 428.492 214.854 428.531 214.582C467.389 219.658 499.844 248.311 510.574 286.037C509.643 287.34 509.129 288.886 509.323 290.528C509.42 291.355 509.517 292.192 509.614 293.018C508.284 291.697 506.916 290.461 505.753 289.284C501.881 285.356 497.913 281.534 493.837 277.81C485.503 270.198 476.849 263.081 467.728 256.44C451.865 244.889 434.691 234.271 415.781 228.729C417.023 227.708 418.266 226.688 419.517 225.676C423.252 222.632 426.716 220.124 428.326 215.428ZM493.141 178.498C469.282 152.372 436.244 133.238 401.452 126.587C368.229 120.228 333.834 124.419 302.447 136.777C236.77 162.64 184.949 219.511 160.683 285.413C146.537 323.809 152.201 334.14 140.558 387.617C128.915 441.093 135.222 446.433 109.995 529.087C84.7679 611.74 84.7684 639.443 185.189 745.91C285.61 852.377 287.172 764.495 364.686 764.384C435.109 764.273 506.091 801.947 534.965 735.701C571.834 651.111 590.754 636.526 576.686 567.007C562.617 497.487 554.306 502.835 554.306 450.816C554.306 398.798 556.693 385.356 554.306 346.415C550.637 286.735 534.299 223.574 493.141 178.498Z" fill="#05051A"/>
<path fill-rule="evenodd" clip-rule="evenodd" d="M425.552 499.361C419.016 496.694 413.184 492.246 408.92 486.565C407.438 484.59 407.054 482.504 407.365 480.596C407.714 478.451 408.983 476.507 410.714 475.203C412.45 473.895 414.622 473.25 416.721 473.578C418.546 473.864 420.362 474.863 421.799 476.935L422.099 477.349C424.634 480.778 427.937 483.592 431.701 485.406C435.328 487.153 439.385 487.969 443.584 487.495C451.58 486.592 457.091 482.267 462.949 476.395C463.675 475.654 464.402 474.889 465.132 474.112C465.593 473.408 466.233 472.955 466.943 472.717C467.732 472.454 468.624 472.469 469.441 472.754C470.229 473.029 470.934 473.55 471.407 474.244C471.856 474.903 472.11 475.718 472.028 476.655C471.492 482.741 468.31 488.172 463.79 492.437C458.771 497.173 452.117 500.45 445.853 501.599C438.952 502.865 431.92 501.958 425.552 499.361V499.361ZM449.109 405.475C456.451 409.938 467.638 420.345 459.74 431.409C450.442 441.164 437.056 429.979 430.46 424.92C424.343 421 417.471 431.083 423.146 435.661C470.812 470.951 490.156 406.642 452.822 400.228C448.712 399.521 447.185 404.094 449.109 405.475ZM363.691 364.424C364.502 354.354 379.838 352.068 381.363 362.032C382.729 370.958 381.121 379.157 377.101 387.193C373.259 394.871 363.604 391.289 362.874 384.298C361.895 374.927 363.186 370.688 363.691 364.424ZM480.429 359.966C482.567 357.166 485.654 355.254 489.353 356.334C500.909 359.711 497.503 376.117 493.444 384.102C491.239 388.439 484.111 389.539 480.89 385.72C475.639 379.494 473.125 367.059 479.8 360.926C479.981 360.609 480.182 360.289 480.429 359.966ZM376.938 320.363L378.763 320.044C384.41 319.067 391.432 318.129 395.426 322.669C397.545 325.076 398.274 329.551 395.426 331.855C390.417 335.909 384.879 334.338 378.876 334.681C373.929 334.965 369.174 335.784 364.409 337.146C353.955 340.134 345.436 345.589 336.508 351.578C335.336 352.364 334.14 350.865 334.699 349.77C339.853 339.674 349.842 331.381 359.847 326.326C365.187 323.628 371.03 321.39 376.938 320.363ZM469.895 315.841L471.292 316.127C486.496 319.305 506.25 325.653 513.45 340.587C513.724 342.699 513.434 343.152 513.199 343.447L513.12 343.546C512.926 343.798 512.771 344.146 511.856 344.434C511.602 344.373 511.345 344.309 511.086 344.241C507.786 343.376 505.174 342.185 502.647 340.949L499.906 339.598C496.726 338.039 493.518 336.537 490.118 335.427C482.862 333.061 475.399 331.394 467.821 330.504C466.178 330.311 464.597 329.756 463.349 328.806C462.164 327.904 461.26 326.656 460.847 324.996C460.312 322.848 460.466 321.222 461.618 319.284C462.485 317.829 463.725 316.821 465.149 316.241C466.6 315.651 468.252 315.512 469.895 315.841Z" fill="#05051A"/>
</g>
</g>
<defs>
<clipPath id="clip0_309_21516">
<rect width="700" height="700" fill="white"/>
</clipPath>
<clipPath id="clip1_309_21516">
<rect width="1334" height="1450.68" fill="white" transform="matrix(-1 0 0 1 986 -70.3379)"/>
</clipPath>
</defs>
</svg>
