<svg width="700" height="700" viewBox="0 0 700 700" fill="none" xmlns="http://www.w3.org/2000/svg">
<g clip-path="url(#clip0_309_21408)">
<path fill-rule="evenodd" clip-rule="evenodd" d="M300.46 1242.63C219.928 1242.63 139.829 1238.68 62.3021 1230.87L62.2679 1230.71L58.1511 1230.22C46.4359 1228.76 34.4595 1227.61 22.8774 1226.49C-7.6755 1223.56 -39.2708 1220.52 -68.7403 1211.5L-73.9464 1209.91L-74.4564 1211.21C-75.2228 1210.82 -76.0273 1210.4 -76.8828 1210.01C-72.2463 1134.29 -64.5119 1059.96 -57.5272 997.041L-57.2405 994.465L-58.9504 992.518C-68.8254 981.273 -72.4636 971.85 -70.0597 963.729C-50.3674 922.627 -46.1928 870.189 -42.1553 819.471C-33.7857 714.353 -25.881 615.065 110.642 610.768L110.86 610.758L112.3 610.658C140.77 608.707 170.209 606.689 196.507 593.6L199.572 592.076L199.754 588.658C199.975 584.533 205.053 579.627 209.132 575.687C210.537 574.33 211.862 573.049 213.054 571.766L213.304 571.497L213.518 571.2C219.673 562.647 226.901 557.543 232.854 557.543C241.524 557.543 245.725 568.424 247.458 574.911L250.19 585.136L257.42 577.406C274.41 559.246 282.538 539.276 281.626 517.979L282.242 517.787L281.451 512.7C279.959 503.87 280.951 497.32 284.404 493.234C288.447 488.451 296.374 486.125 308.639 486.125C316.744 486.125 325.562 487.147 333.344 488.049C335.888 488.343 338.34 488.627 340.655 488.865C356.232 490.506 372.156 493.458 387.554 496.312L389.715 496.712L388.253 500.695L391.994 503.281C396.979 506.727 400.691 513.64 402.18 522.247L402.247 522.635L402.366 523.013C404.58 530.031 405.42 537.868 406.31 546.165C407.805 560.126 409.351 574.56 417.708 586.987L422.729 594.452L427.543 586.851C429.891 583.142 433.039 581.338 437.168 581.338C448.305 581.338 461.906 593.653 464.323 603.199L465.099 606.264L468.085 607.303C488.592 614.443 505.489 619.654 520.396 624.251C557.827 635.794 576.615 641.589 588.671 658.572C601.073 676.042 607.349 706.535 617.79 767.204C629.214 832.948 636.848 900.523 644.229 965.873C653.499 1047.95 663.084 1132.8 680.286 1215.1C679.089 1216.33 678.181 1217.56 677.563 1218.78C669.969 1219.45 662.247 1220.06 654.734 1220.65C642.231 1221.63 629.303 1222.65 616.669 1223.97L613.866 1224.27L613.244 1225.24C612.091 1225.33 610.955 1225.45 609.838 1225.56C608.057 1225.74 606.339 1225.91 604.661 1226.01L604.153 1224.99L600.077 1225.45C498.617 1236.85 397.812 1242.63 300.46 1242.63" fill="#FBD4C5"/>
<path fill-rule="evenodd" clip-rule="evenodd" d="M232.854 557.543C241.524 557.543 245.725 568.424 247.458 574.911L250.19 585.136L254.409 580.624L246.73 594.06L306.512 648.927L308.801 650.54C333.232 667.653 349.865 676.21 358.699 676.21C367.807 676.21 394.915 653.899 440.023 609.276L415.666 594.06L417.861 587.217L422.729 594.452L427.543 586.851C429.891 583.142 433.039 581.338 437.168 581.338C448.305 581.338 461.906 593.653 464.323 603.199L465.099 606.264L470.529 608.15C486.705 613.741 500.613 618.13 513.081 621.992L529.028 626.92C560.79 636.793 577.58 642.947 588.671 658.572C600.825 675.693 607.096 705.321 617.168 763.6L617.79 767.204C628.695 829.96 636.146 894.383 643.221 956.948L645.973 981.294C654.727 1058.55 664.159 1137.94 680.286 1215.1C679.089 1216.33 678.181 1217.56 677.563 1218.78C672.5 1219.23 667.381 1219.64 662.304 1220.05L647.877 1221.19C637.54 1222.01 627.006 1222.89 616.669 1223.97L613.866 1224.27L613.244 1225.24C612.476 1225.3 611.715 1225.37 610.962 1225.45L609.838 1225.56C608.057 1225.74 606.339 1225.91 604.661 1226.01L604.153 1224.99L600.077 1225.45C498.617 1236.85 397.812 1242.63 300.46 1242.63C219.928 1242.63 139.829 1238.68 62.3021 1230.87L62.2679 1230.71L58.1511 1230.22C48.779 1229.05 39.2396 1228.08 29.8687 1227.17L16.3156 1225.86C-12.1783 1223.09 -41.3758 1219.88 -68.7403 1211.5L-73.9464 1209.91L-74.4564 1211.21C-75.2228 1210.82 -76.0273 1210.4 -76.8828 1210.01L-76.5656 1204.91C-71.899 1130.95 -64.3549 1058.55 -57.5272 997.041L-57.2405 994.465L-58.9504 992.518C-68.8254 981.273 -72.4636 971.85 -70.0597 963.729C-50.3674 922.627 -46.1928 870.189 -42.1553 819.471L-41.6527 813.172C-33.5021 711.468 -23.3599 616.928 106.584 610.925L110.86 610.758L117.333 610.311C144.222 608.432 171.756 605.919 196.507 593.6L199.572 592.076L199.754 588.658C199.951 584.981 204.006 580.685 207.774 577.004L210.316 574.541C211.283 573.598 212.203 572.682 213.054 571.766L213.304 571.497L213.518 571.2C219.673 562.647 226.901 557.543 232.854 557.543Z" fill="#05051A"/>
<path fill-rule="evenodd" clip-rule="evenodd" d="M127.237 836.265C127.468 835.861 128.241 836.003 128.179 836.521C124.815 858.855 116.654 880.495 111.688 902.545L111.839 902.965C114.373 910.217 120.2 936.376 105.951 929.102L104.812 935.066C86.2786 1032.49 71.3193 1130.95 73.4056 1230.4C73.712 1238.32 69.5688 1261.77 58.3753 1250.28C50.1535 1236.49 53.774 1219.58 53.1261 1204.27C54.5394 1120.21 63.1009 1035.5 85.0855 954.181L85.9942 951.369C100.537 906.659 100.482 920.98 93.649 871.057C93.4835 866.451 90.1537 856.44 94.5377 853.674C98.4874 856.167 99.7973 863.487 101.229 867.825L101.327 868.116C103.453 874.319 105.348 880.574 107.227 886.855C113.469 869.994 118.487 852.028 127.237 836.265ZM359.598 1221.72C367.672 1219.33 374.94 1228.52 372.12 1236.04C370.295 1243.89 355.045 1248.76 354.465 1237.82C350.294 1233.36 351.648 1225.16 357.344 1222.68C357.287 1222.67 359.072 1221.95 359.598 1221.72ZM555.186 776.742C555.486 775.704 556.347 776.65 556.115 777.31C557.916 786.435 556.452 796.471 556.865 805.951C558.018 803.236 559.512 800.641 561.453 798.21C563.135 796.104 566.188 799.112 564.438 801.194C560.092 806.365 558.191 812.599 557.363 819.077C563.74 954.356 582.517 1089.4 614.729 1220.97C621.711 1239.11 593.552 1246.46 596.642 1226.7C575.332 1134.42 558.34 1040.2 554.541 945.336C549.415 903.709 551.434 860.337 552.137 818.168C552.165 804.43 553.493 790.353 555.186 776.742ZM268.438 500.808C276.35 501.435 280.937 514.57 282.515 521.776C288.299 550.02 272.747 579.415 252.279 597.938C282.501 625.166 315.32 649.432 350.738 669.525C355.556 664.068 364.067 664.852 369.996 668.143C389.173 650.002 408.601 632.246 427.272 613.599C398.246 595.239 395.822 557.438 401.632 526.682L401.811 525.752C402.25 523.112 405.928 524.071 406.137 526.338L406.267 527.799C408.009 547.801 408.165 569.396 419.289 586.874C431.945 566.886 462.274 587.341 466.724 604.922C593.924 649.206 595.114 623.105 620.287 769.372C645.738 918.903 652.938 1071 682.75 1219.85C683.118 1224.07 679.285 1227.52 675.469 1228.1C660.886 1230.04 660.432 1190.63 657.071 1179.63C649.896 1138.54 644.477 1097.17 639.806 1055.74C625.467 932.999 620.559 808.396 592.793 687.663C590.001 677.505 586.024 667.455 578.994 659.443C549.696 627.562 498.879 634.532 467.125 606.12C470.201 615.588 470.448 626.055 469.843 635.945C466.369 688.656 464.272 741.467 460.54 794.159C460.107 800.076 452.945 802.021 449.591 797.124C423.019 758.341 395.747 720.145 369.845 680.892C365.672 682.871 361.219 683.774 356.44 682.825C348.861 692.394 352.135 717.424 349.661 730.547L348.743 740.588C334.592 896.23 324.205 1052.26 324.975 1208.62L325.004 1213.67C324.997 1218.46 325.365 1223.44 325.007 1228.22C321.771 1243.76 306.472 1238.2 307.33 1224.34C306.649 1049.14 313.888 872.809 342.796 699.8C316.699 732.693 290.632 765.611 264.523 798.497C262.569 800.978 258.856 799.887 257.306 797.59L257.208 797.439L257.85 799.161C256.28 798.658 254.909 797.703 253.486 796.879C240.359 764.647 231.864 730.841 221.552 697.679C212.944 665.161 200.04 633.266 195.285 599.945L195.07 599.855V599.855C182.153 606.349 167.844 610.516 153.382 610.764C137.027 614.977 119.826 616.964 103.512 619.105C-15.0855 624.179 -38.5324 741.934 -37.4479 839.539L-37.6538 844.199C-38.8932 873.225 -39.4778 902.757 -46.674 930.992C-49.3304 936.318 -57.7353 970.583 -66.1891 958.412C-73.3167 967.938 -71.085 973.486 -61.5859 979.371C-44.9944 993.615 -28.8052 1016.29 -25.6124 1039.66C-25.0182 1043.98 -31.2101 1047.77 -33.4114 1042.95L-34.5102 1040.56C-40.9389 1026.6 -47.736 1012.95 -56.917 1000.83C-57.3232 1001.51 -57.8762 1002.08 -58.5379 1002.46C-60.7441 1060.29 -65.2113 1118.02 -69.2057 1175.75C-71.3899 1184.02 -67.2732 1236.54 -84.0131 1223.56L-84.5267 1223.15C-88.3502 1215.06 -86.0497 1205.27 -85.2682 1196.63L-82.9156 1168.95V1168.95C-77.8347 1112.46 -73.6749 1055.85 -66.655 999.558L-67.2062 998.925C-75.2795 989.571 -82.8224 977.219 -78.8468 964.739C-76.809 957.233 -70.0524 953.496 -65.4814 947.761C-40.6818 816.957 -83.5264 614.423 107.165 608.062L115.148 607.51C140.854 605.687 167.327 603.089 190.598 591.507C191.036 583.34 200.365 576.42 205.459 570.933C221.153 549.128 242.221 548.034 249.839 576.559C270.097 554.776 278.279 529.483 268.438 500.808ZM353.814 1134.56C363.689 1125.04 376.919 1142.38 359.013 1154.63C355.764 1160.58 346.885 1156.38 348.395 1150.15L348.376 1149.1C348.244 1143.68 347.71 1136.98 353.814 1134.56ZM354.865 1007.53C372.894 1001.72 368.402 1034.55 356.507 1039.03C349.32 1042.6 346.856 1033.67 348.169 1028.22C343.5 1021.12 347.776 1011.79 354.865 1007.53ZM354.574 913.171C351.248 899.102 371.441 896.76 371.557 911.455C372.209 917.634 366.573 921.655 365.149 927.028C364.849 930.524 360.559 932.987 357.813 930.067C353.232 925.193 352.248 918.579 354.574 913.171ZM352.039 788.158C354.096 771.689 372.736 778.632 366.154 781.375C366.021 781.518 365.883 781.658 365.737 781.8C373.265 782.531 372.737 791.372 371.9 797.027C368.946 809.688 349.809 798.169 352.039 788.158ZM237.406 735.773C238.938 741.313 240.481 746.85 242.059 752.376C246.126 766.615 250.958 780.475 256.054 794.312C249.819 774.804 243.606 755.29 237.406 735.773ZM247.709 578.955C229.863 548.988 220.233 582.773 207.29 596.052C216.434 661.423 244.105 722.489 262.939 785.507C289.18 751.966 315.448 718.449 341.696 684.914C343.266 682.904 344.778 680.797 346.345 678.734C313.396 659.694 282.329 637.183 256.178 609.254C251.148 610.33 247.29 603.605 243.68 600.807L243.301 600.495C239.961 597.681 236.865 593.241 238.968 588.864C238.689 588.271 239.113 587.724 239.689 587.544C242.301 584.677 245.071 581.913 247.709 578.955ZM455.853 641.751C457.595 620.362 454.068 589.698 425.306 594.578C430.428 601.594 440.058 602.727 445.13 609.463C446.987 612.547 444.709 616.368 441.334 616.953C419.009 637.171 397.905 657.881 375.112 677.787C400.44 710.578 424.756 743.991 449.387 777.288C451.088 732.09 454.079 686.938 455.853 641.751Z" fill="#05051A"/>
<path fill-rule="evenodd" clip-rule="evenodd" d="M504.2 365.737C502.098 347.223 504.819 308.526 505.001 306.175C506.154 291.312 499.205 232.621 486.068 238.029C464.03 220.546 434.679 216.686 407.233 214.842C350.224 211.011 289.577 219.805 245.556 258.252C223.786 278.219 202.591 307.258 204.295 337.495C184.515 366.156 156.631 405.471 181.275 438.978C189.652 449.683 202.966 453.67 213.49 461.777C234.657 478.886 247.937 503.44 269.305 520.448C325.917 571.426 422.043 582.075 477.663 524.092C520.674 482.098 513.719 419.273 506.154 365.737C501.068 329.745 508.302 401.856 504.2 365.737Z" fill="#FBD4C5"/>
<path fill-rule="evenodd" clip-rule="evenodd" d="M331.077 136.33C346.324 133.247 361.98 131.329 377.55 131.906L378.75 131.953C390.465 132.422 405.301 133.46 415.521 140.286C416.109 139.695 417.054 139.392 417.912 139.802C430.057 145.611 443.414 149.811 456.201 153.985C468.93 158.138 482.135 160.879 495.477 161.984C500.496 162.4 504.792 167.832 501.613 172.703C500.857 173.864 500.121 175.036 499.387 176.212C500.614 176.084 501.841 175.952 503.068 175.827C507.104 175.42 511.137 179.738 510.898 183.676C510.749 186.154 510.482 188.602 510.087 191.02C511.625 190.988 513.153 191.219 514.63 191.844C522.108 195.009 521.587 203.934 521.028 210.725C520.252 220.149 516.735 230.131 510.205 237.184C515.08 242.259 518.532 248.319 520.591 255.517C522.085 260.774 522.916 266.372 522.505 271.844L522.375 273.482C521.867 279.419 520.859 285.993 516.596 290.265C514.408 292.467 511.713 293.269 509.143 293.015C510.697 306.698 511.693 320.46 512.631 334.173L513.07 340.727C515.162 372.42 516.734 404.32 516.323 436.065C515.941 465.732 510.091 494.528 491.934 518.616C475.397 540.551 451.654 556.721 424.794 562.867C410.319 566.186 395.541 566.42 380.89 564.306C373.788 563.278 366.64 561.703 359.899 559.217C352.438 556.456 347.076 552.394 342.056 546.306C339.681 543.419 340.824 537.272 345.552 537.85C352.703 538.718 359.231 539.766 366.087 541.885L367.068 542.195C373.897 544.388 380.968 546.022 388.107 546.717C402.73 548.137 417.575 546.708 431.582 542.264C454.389 535.021 474.031 518.881 486.621 498.6C501.564 474.561 503.254 447.272 503.038 419.631C502.807 389.3 501.823 358.951 500.216 328.652L499.942 323.602C499.092 308.01 498.272 292.408 497.55 276.806C497.326 271.912 496.984 266.979 496.367 262.095C490.733 258.787 485.683 254.225 482.391 248.597C475.779 251.338 468.825 253.315 462.426 254.891C447.605 258.544 432.218 259.431 417.132 257.143C413.063 258.828 408.913 260.309 404.7 261.583C403.561 262.089 402.422 262.586 401.284 263.074C391.125 267.429 380.821 271.119 370.097 273.821L367.463 274.479C361.82 275.873 355.69 277.246 349.684 277.677C348.697 278.059 347.633 278.382 346.469 278.666C341.001 279.997 335.325 280.418 329.719 279.948C324.259 279.488 320.313 273.958 323.321 268.78C325.519 265.002 327.737 261.234 329.973 257.475C322.189 260.725 314.15 263.426 306.044 265.716C297.859 268.026 289.557 269.974 281.244 271.765C276.8 272.715 272.337 273.557 267.903 274.506C264.728 275.181 259.854 275.534 257.265 277.628C254.404 279.929 253.594 285.292 252.508 288.601C251.082 292.897 249.744 297.214 248.523 301.579C246.092 310.291 244.1 319.129 242.557 328.056C241.013 336.992 239.977 346.016 239.401 355.07C238.825 364.114 239.078 373.217 238.151 382.222C237.652 386.998 232.535 389.455 228.755 386.117C228.312 385.726 227.865 385.33 227.422 384.93L226.763 384.326C223.529 381.39 220.394 378.277 217.806 374.773C217.337 374.127 216.888 373.452 216.468 372.767C216.4 372.767 216.341 372.747 216.273 372.698L215.555 372.157C207.656 366.265 194.459 358.583 186.756 368.372C184.302 371.49 183.045 375.461 182.002 379.292L180.172 386.148C178.988 390.623 177.874 395.124 177.222 399.703C175.748 409.961 176.49 421.785 183.533 430.006C186.346 433.295 190.224 435.644 194.55 436.261C196.963 436.594 199.346 436.183 201.739 435.879C204.171 435.576 206.514 436.065 208.947 435.83C212.815 435.448 214.505 440.088 213.059 443.005C212.278 444.571 211.359 445.922 210.315 447.067C211.154 447.791 211.956 448.574 212.727 449.396C215.013 450.13 217.063 451.706 218.597 453.791C219.838 455.475 220.482 457.305 220.59 459.233C220.726 459.713 220.843 460.202 220.951 460.701L223.047 464.109C223.508 464.857 223.967 465.595 224.428 466.32C229.76 474.737 235.68 481.863 243.035 488.577C250.116 495.037 257.802 500.822 264.455 507.752L265.238 508.575C271.44 515.124 277.977 523.051 275.55 532.574C274.925 535.021 271.515 536.783 269.289 535.128C262.13 529.804 258.525 521.367 252.451 514.907C246.199 508.251 239.274 502.271 233.004 495.634C227.074 489.37 222.396 482.274 218.871 474.463C217.463 476.019 215.413 477.125 212.571 477.556C207.687 478.29 203.135 475.422 201.007 471.184C199.638 471.791 198.243 472.339 196.835 472.77C189.431 475.041 184.773 466.789 187.567 460.691C189.06 457.422 190.926 454.584 193.242 452.196C186.003 451.197 178.639 447.448 173.882 442.77C161.947 431.015 160.307 413.347 162.992 397.638C164.419 389.308 166.879 380.881 170.074 373.06C170.63 371.7 171.226 370.33 171.88 368.979C171.518 368.969 171.147 368.812 170.913 368.509C168.754 365.553 166.128 363.135 164.525 359.827C163.05 356.793 161.41 353.72 160.247 350.558C157.855 344.088 156.683 336.786 155.901 329.945C154.29 315.938 154.914 302.02 157.054 288.101C160.696 264.395 169.495 241.709 182.457 221.802C181.751 221.43 181.075 220.982 180.444 220.451L180.133 220.179L179.627 219.721C175.928 216.367 176.248 210.08 179.627 206.683L180.694 205.611C182.046 204.265 183.211 203.199 185.395 201.734C185.717 201.518 186.046 201.314 186.379 201.124C185.236 199.008 184.84 196.534 185.636 193.804C188.41 184.294 202.064 184.631 210.719 188.778C220.294 180.214 230.911 172.78 242.419 166.761C269.827 152.431 300.817 142.438 331.077 136.33ZM189.403 386.803C194.521 385.129 201.319 388.643 205.92 390.757C211.751 393.439 216.712 397.403 221.518 401.592C223.911 403.687 224.34 407.113 223.745 410.039C223.685 410.333 223.628 410.636 223.558 410.94C222.923 414.062 219.446 416.519 216.37 416.431C209.933 416.255 206.867 410.685 203.223 405.967C202.794 406.731 202.257 407.436 201.592 407.964L201.143 408.316C199.631 409.47 197.964 410.392 195.966 410.303C194.55 410.235 193.193 409.873 191.942 409.217C188.816 407.563 187.44 403.511 188.289 400.212C188.816 398.137 190.027 396.512 191.61 395.387L191.02 394.982C189.758 394.102 188.607 393.175 187.71 391.805L187.507 391.481H187.586C186.609 389.798 187.245 387.507 189.403 386.803Z" fill="black"/>
<path fill-rule="evenodd" clip-rule="evenodd" d="M407.215 486.053C400.636 483.369 394.765 478.892 390.473 473.172C388.98 471.184 388.594 469.084 388.907 467.164C389.259 465.004 390.536 463.047 392.278 461.734C394.026 460.418 396.212 459.768 398.326 460.099C400.162 460.387 401.99 461.392 403.437 463.478L403.739 463.895C406.291 467.347 409.616 470.179 413.405 472.005C417.057 473.765 421.141 474.586 425.367 474.108C433.417 473.199 438.965 468.846 444.862 462.934C445.593 462.188 446.324 461.418 447.059 460.636C447.523 459.927 448.167 459.471 448.882 459.232C449.676 458.967 450.575 458.982 451.397 459.269C452.191 459.546 452.9 460.071 453.376 460.769C453.828 461.433 454.084 462.253 454.001 463.196C453.461 469.323 450.258 474.79 445.709 479.083C440.656 483.851 433.958 487.15 427.652 488.307C420.704 489.581 413.625 488.668 407.215 486.053V486.053ZM430.929 391.542C438.32 396.035 449.582 406.511 441.631 417.649C432.271 427.469 418.796 416.209 412.155 411.117C405.998 407.17 399.08 417.321 404.793 421.929C452.777 457.454 472.25 392.717 434.667 386.26C430.529 385.548 428.992 390.152 430.929 391.542ZM344.941 350.217C345.758 340.08 361.196 337.778 362.732 347.809C364.107 356.794 362.488 365.048 358.441 373.138C354.574 380.867 344.854 377.261 344.119 370.223C343.133 360.79 344.433 356.522 344.941 350.217ZM462.458 345.729C464.61 342.91 467.718 340.986 471.441 342.073C483.074 345.473 479.645 361.988 475.56 370.027C473.34 374.392 466.165 375.499 462.922 371.655C457.636 365.387 455.105 352.869 461.825 346.695C462.007 346.376 462.209 346.054 462.458 345.729ZM358.277 305.862L360.114 305.541C365.799 304.557 372.867 303.613 376.889 308.183C379.021 310.606 379.755 315.111 376.889 317.43C371.846 321.512 366.271 319.93 360.228 320.276C355.247 320.562 350.461 321.386 345.664 322.757C335.14 325.765 326.565 331.256 317.577 337.285C316.397 338.076 315.193 336.568 315.756 335.465C320.945 325.302 331 316.954 341.072 311.865C346.447 309.149 352.33 306.896 358.277 305.862ZM451.854 301.31L453.26 301.597C468.566 304.797 488.451 311.188 495.699 326.221C495.975 328.347 495.684 328.803 495.446 329.1L495.367 329.199C495.172 329.454 495.016 329.804 494.094 330.093C493.839 330.032 493.58 329.968 493.319 329.899C489.997 329.029 487.368 327.829 484.824 326.585L482.065 325.225C478.863 323.656 475.634 322.143 472.211 321.027C464.908 318.644 457.395 316.966 449.766 316.07C448.112 315.876 446.52 315.318 445.264 314.362C444.072 313.454 443.161 312.197 442.745 310.526C442.207 308.364 442.362 306.727 443.522 304.776C444.394 303.311 445.642 302.296 447.076 301.713C448.537 301.119 450.2 300.978 451.854 301.31Z" fill="#05051A"/>
<path fill-rule="evenodd" clip-rule="evenodd" d="M461.056 463.495C463.738 466.246 466.312 469.192 468.74 472.236C469.415 477.071 469.572 481.965 468.955 487.016C468.055 494.337 466.058 501.492 463.356 508.363C461.761 508.138 460.185 507.688 458.648 506.983C453.774 504.742 451.053 500.229 447.754 496.246C441.187 488.327 429.206 483.649 420.828 491.861C417.187 495.433 414.857 500.376 411.608 504.301C408.035 508.618 404.022 512.719 399.833 516.438C399.314 516.908 398.776 517.417 398.218 517.916C395.888 515.254 393.598 512.572 391.357 509.851C384.691 501.747 378.936 492.771 375.911 482.65C374.952 479.44 374.355 476.092 374.12 472.716C377.086 469.035 380.472 465.688 384.319 462.918C395.918 454.549 409.278 453.189 423.177 452.464C437.555 451.721 450.505 452.699 461.056 463.495M496.136 502.324C495.578 496.725 494.717 490.901 493.444 485.087C488.795 463.515 478.723 442.011 458.531 432.154C448.978 427.485 438.123 425.841 427.826 428.092C409.758 421.329 389.693 428.229 375.471 440.601C358.694 455.195 350.952 478.099 348.348 499.554C346.538 514.48 345.855 534.423 350.091 545.253C354.326 556.084 381.242 585.045 419.663 585.247C474.387 585.534 487.689 548.63 489.304 545.4C496.048 531.971 497.614 517.143 496.136 502.324" fill="black"/>
</g>
<defs>
<clipPath id="clip0_309_21408">
<rect width="700" height="700" fill="white"/>
</clipPath>
</defs>
</svg>
