<svg width="116" height="173" viewBox="0 0 116 173" fill="none" xmlns="http://www.w3.org/2000/svg">
<path d="M59 100.1C86.1173 100.1 108.1 78.1173 108.1 51C108.1 23.8827 86.1173 1.89975 59 1.89975C31.8827 1.89975 9.89975 23.8827 9.89975 51C9.89975 78.1173 31.8827 100.1 59 100.1Z" fill="#E6E6E8"/>
<path d="M61.5181 39.3401L62.5955 46.6586C62.6529 47.0666 63.0354 47.4619 63.4434 47.532L70.73 48.8134C71.5906 48.9664 71.648 49.4062 70.8703 49.7887L64.2403 53.0719C63.8705 53.2568 63.6155 53.7413 63.6729 54.1493L64.7056 61.4741C64.8268 62.3348 64.4251 62.5324 63.8195 61.9076L58.6494 56.6228C58.3625 56.3295 57.8206 56.2339 57.4509 56.4124L50.8018 59.6573C50.0176 60.0398 49.7116 59.721 50.1133 58.9496L53.543 52.3961C53.7343 52.0328 53.6578 51.4909 53.3709 51.1913L48.2326 45.8681C47.627 45.2434 47.8374 44.8481 48.6916 44.9948L55.9846 46.2315C56.3926 46.3016 56.8835 46.0594 57.0748 45.696L60.5491 39.168C60.9571 38.3966 61.397 38.4731 61.5245 39.3338L61.5181 39.3401ZM94.8339 35.2538L85.7113 44.3764C85.4945 44.5931 85.3734 45.0203 85.4371 45.3263C85.8643 47.3089 86.0746 49.368 86.0364 51.4845C85.7878 65.5796 74.4403 77.3096 60.3579 77.9981C44.0443 78.795 30.7333 65.1589 32.0529 48.7433C33.0601 36.2419 44.6244 24.8498 57.1385 24.021C60.0328 23.8298 62.8441 24.0848 65.5025 24.7478C65.8149 24.8243 66.2548 24.7095 66.4843 24.48L75.4921 15.4721C76.0723 14.892 75.9448 14.1206 75.1861 13.7891C69.8248 11.4559 63.8578 10.251 57.5848 10.4614C37.5481 11.1371 19.6025 28.6811 18.506 48.6922C17.18 72.828 36.8979 92.6543 60.9954 91.5004C80.8535 90.5505 98.5378 72.8854 99.5068 53.0273C99.8064 46.8308 98.7226 40.9148 96.5233 35.5661C96.2045 34.7884 95.4268 34.6481 94.8339 35.2474V35.2538Z" fill="#10375B"/>
<path d="M63.4115 45.9765L62.0919 37.9058C62.06 37.7081 62.1238 37.5105 62.264 37.3703L79.5721 20.2789C79.9546 19.8964 80.6113 20.1641 80.6176 20.706L80.7706 28.6365C80.7706 28.9489 81.0129 29.2039 81.3253 29.2358L89.3386 30.0263C89.8614 30.0773 90.0845 30.7211 89.702 31.0845L72.0688 47.7743C71.9221 47.9081 71.7245 47.9719 71.5333 47.9336L63.9024 46.4801C63.6474 46.4291 63.4498 46.2315 63.4115 45.9765Z" fill="#A58618"/>
<path d="M21.1528 120.121L22.6836 121.643L21.1528 123.183L19.6221 121.643L21.1528 120.121ZM18.0171 120.121L19.5664 121.643L18.0171 123.183L16.5049 121.643L18.0171 120.121ZM23.9731 134C23.3856 134 22.8722 133.923 22.4331 133.768C21.994 133.613 21.6291 133.375 21.3384 133.054C21.0477 132.732 20.825 132.321 20.6704 131.82C20.3055 132.123 19.9313 132.349 19.5479 132.497C19.1644 132.639 18.7469 132.71 18.2954 132.71C17.2935 132.71 16.4585 132.438 15.7905 131.894C15.1226 131.35 14.7886 130.555 14.7886 129.51C14.7886 128.935 14.9154 128.418 15.1689 127.96C15.4287 127.503 15.7782 127.095 16.2173 126.736C16.6626 126.377 17.1729 126.065 17.748 125.799C18.3294 125.527 18.9417 125.292 19.585 125.094L19.52 124.648L21.6167 124.222L22.4888 130.131C22.5444 130.533 22.696 130.864 22.9434 131.124C23.1908 131.378 23.5464 131.504 24.0103 131.504H24.2886V134H23.9731ZM20.1973 129.074C20.1973 128.987 20.1911 128.891 20.1787 128.786C20.1663 128.681 20.1478 128.573 20.123 128.461L19.9468 127.385C19.5695 127.515 19.2077 127.657 18.8613 127.812C18.515 127.96 18.2057 128.121 17.9336 128.294C17.6676 128.461 17.4574 128.641 17.3027 128.833C17.1481 129.024 17.0708 129.222 17.0708 129.426C17.0708 129.717 17.179 129.946 17.3955 130.113C17.6182 130.274 17.9089 130.354 18.2676 130.354C18.5706 130.354 18.8706 130.308 19.1675 130.215C19.4644 130.122 19.7087 129.98 19.9004 129.788C20.0983 129.596 20.1973 129.358 20.1973 129.074ZM23.9082 131.504H24.6504V134H23.9082V131.504ZM27.2852 135.243L28.8159 136.765L27.2852 138.305L25.7544 136.765L27.2852 135.243ZM24.1494 135.243L25.6987 136.765L24.1494 138.305L22.6372 136.765L24.1494 135.243ZM25.9121 134H24.4277V131.504H25.9121C26.4131 131.504 26.7533 131.353 26.9326 131.05C27.1182 130.747 27.2109 130.36 27.2109 129.89C27.2109 129.476 27.1615 129.024 27.0625 128.536C26.9697 128.041 26.8739 127.555 26.7749 127.079L29.0479 126.495C29.1654 127.057 29.2581 127.617 29.3262 128.174C29.3942 128.724 29.4282 129.25 29.4282 129.751C29.4282 130.561 29.32 131.288 29.1035 131.931C28.887 132.568 28.5221 133.072 28.0088 133.443C27.4954 133.814 26.7965 134 25.9121 134ZM31.5063 121.04H33.835V129.593C33.835 130.292 33.9401 130.787 34.1504 131.078C34.3669 131.362 34.7812 131.504 35.3936 131.504H35.6255V134H35.3936C34.0514 134 33.068 133.651 32.4434 132.952C31.8187 132.253 31.5063 131.192 31.5063 129.77V121.04ZM41.1919 121.448L42.7969 123.053L41.1919 124.658L39.5869 123.053L41.1919 121.448ZM41.229 128.276C40.9259 128.276 40.5889 128.291 40.2178 128.322C39.8529 128.353 39.4787 128.415 39.0952 128.508C39.3797 128.829 39.6859 129.151 40.0137 129.473C40.3477 129.794 40.6322 130.063 40.8672 130.28C41.1022 130.49 41.2197 130.595 41.2197 130.595C41.2197 130.595 41.2909 130.533 41.4331 130.41C41.5754 130.286 41.7547 130.122 41.9712 129.918C42.1938 129.714 42.4289 129.488 42.6763 129.241C42.9237 128.993 43.1525 128.749 43.3628 128.508C42.9855 128.415 42.6082 128.353 42.231 128.322C41.8599 128.291 41.5259 128.276 41.229 128.276ZM41.2197 126.003C41.7083 126.003 42.2217 126.04 42.7598 126.114C43.304 126.188 43.8112 126.303 44.2812 126.458C44.7575 126.606 45.144 126.801 45.4409 127.042C45.744 127.283 45.8955 127.574 45.8955 127.914C45.8955 128.075 45.8398 128.27 45.7285 128.499C45.6234 128.727 45.4811 128.972 45.3018 129.231C45.1224 129.485 44.9276 129.742 44.7173 130.001C44.507 130.261 44.2936 130.506 44.0771 130.734C43.8669 130.963 43.6751 131.161 43.502 131.328C43.7865 131.409 44.0617 131.458 44.3276 131.477C44.5936 131.495 44.8379 131.504 45.0605 131.504H46.5078V134H45.0698C44.3647 134 43.6906 133.92 43.0474 133.759C42.4041 133.592 41.7949 133.354 41.2197 133.044C40.8239 133.255 40.3662 133.431 39.8467 133.573C39.3333 133.715 38.8045 133.824 38.2603 133.898C37.716 133.966 37.2057 134 36.7295 134H35.2637V131.504H36.7388C36.8934 131.504 37.1037 131.504 37.3696 131.504C37.6356 131.498 37.9108 131.483 38.1953 131.458C38.486 131.427 38.7365 131.381 38.9468 131.319C38.7736 131.152 38.5819 130.954 38.3716 130.725C38.1613 130.496 37.9479 130.252 37.7314 129.992C37.5212 129.726 37.3263 129.466 37.147 129.213C36.9738 128.953 36.8315 128.712 36.7202 128.489C36.6089 128.26 36.5532 128.069 36.5532 127.914C36.5532 127.574 36.7017 127.283 36.9985 127.042C37.2954 126.801 37.6789 126.606 38.1489 126.458C38.6252 126.303 39.1323 126.188 39.6704 126.114C40.2147 126.04 40.7311 126.003 41.2197 126.003ZM46.1367 131.504H46.8511C47.519 131.504 47.9489 131.344 48.1406 131.022C48.3324 130.694 48.4282 130.221 48.4282 129.603V121.04H50.7568V129.779C50.7568 131.17 50.4476 132.222 49.8291 132.933C49.2168 133.644 48.221 134 46.8418 134H46.1367V131.504ZM55.6738 121.04V133.991H53.3545V121.04H55.6738ZM67.855 130.113C67.855 129.958 67.8179 129.754 67.7437 129.5C67.6756 129.247 67.6014 129.034 67.521 128.86L65.7305 124.862L67.79 123.869L70.0537 129.12C70.2578 129.596 70.4403 130.014 70.6011 130.373C70.7619 130.731 70.9382 131.01 71.1299 131.208C71.3216 131.405 71.5628 131.504 71.8535 131.504H72.2432V134H71.8535C71.3835 134 70.9814 133.941 70.6475 133.824C70.3197 133.7 70.029 133.53 69.7754 133.313C69.528 133.097 69.2961 132.843 69.0796 132.553C68.7765 132.862 68.4271 133.125 68.0312 133.341C67.6416 133.558 67.1994 133.722 66.7046 133.833C66.2098 133.938 65.6501 133.991 65.0254 133.991C64.5059 133.991 64.0575 133.972 63.6802 133.935C63.3091 133.898 62.9318 133.833 62.5483 133.74V131.254C62.9318 131.34 63.3276 131.409 63.7358 131.458C64.144 131.507 64.5275 131.532 64.8862 131.532C65.3996 131.532 65.882 131.489 66.3335 131.402C66.785 131.31 67.1499 131.161 67.4282 130.957C67.7127 130.747 67.855 130.465 67.855 130.113ZM71.8721 134V131.504H73.4863V131.31C73.4863 130.703 73.5513 130.066 73.6812 129.398C73.811 128.73 74.0151 128.106 74.2935 127.524C74.5718 126.943 74.9429 126.47 75.4067 126.105C75.8706 125.74 76.4396 125.558 77.1138 125.558C77.6951 125.558 78.193 125.7 78.6074 125.984C79.0218 126.263 79.3403 126.643 79.563 127.125C79.7856 127.602 79.897 128.146 79.897 128.758C79.897 129.333 79.7887 129.903 79.5723 130.465C79.3558 131.022 79.0589 131.542 78.6816 132.024C78.3044 132.5 77.8745 132.911 77.3921 133.258C76.9097 133.598 76.4056 133.833 75.8799 133.963C75.9479 134.179 76.0469 134.402 76.1768 134.631C76.3066 134.86 76.4613 135.079 76.6406 135.29C76.82 135.506 77.0117 135.695 77.2158 135.855C77.321 135.28 77.5034 134.733 77.7632 134.213C78.0291 133.694 78.3477 133.23 78.7188 132.822C79.096 132.414 79.5135 132.092 79.9712 131.857C80.4289 131.622 80.9051 131.504 81.3999 131.504H81.7061V134H81.3813C80.9731 134 80.6299 134.053 80.3516 134.158C80.0794 134.263 79.8599 134.421 79.6929 134.631C79.5259 134.841 79.4022 135.107 79.3218 135.429C79.2476 135.757 79.2104 136.137 79.2104 136.57C79.2104 136.724 79.2135 136.882 79.2197 137.043C79.2321 137.21 79.2445 137.377 79.2568 137.544L77.7261 138.982C77.1014 138.679 76.5076 138.264 75.9448 137.739C75.382 137.219 74.8996 136.635 74.4976 135.985C74.0955 135.342 73.8172 134.68 73.6626 134H71.8721ZM77.0303 127.96C76.7891 127.96 76.5819 128.066 76.4087 128.276C76.2355 128.486 76.0902 128.761 75.9727 129.102C75.8613 129.436 75.7778 129.8 75.7222 130.196C75.6727 130.586 75.6479 130.957 75.6479 131.31V131.514C76.0562 131.489 76.4272 131.356 76.7612 131.115C77.1014 130.867 77.3735 130.552 77.5776 130.168C77.7817 129.779 77.8838 129.364 77.8838 128.925C77.8838 128.622 77.8034 128.387 77.6426 128.22C77.488 128.047 77.2839 127.96 77.0303 127.96ZM87.3003 128.276C86.9972 128.276 86.6602 128.291 86.2891 128.322C85.9242 128.353 85.55 128.415 85.1665 128.508C85.451 128.829 85.7572 129.151 86.085 129.473C86.4189 129.794 86.7035 130.063 86.9385 130.28C87.1735 130.49 87.291 130.595 87.291 130.595C87.291 130.595 87.3621 130.533 87.5044 130.41C87.6466 130.286 87.826 130.122 88.0425 129.918C88.2651 129.714 88.5002 129.488 88.7476 129.241C88.995 128.993 89.2238 128.749 89.4341 128.508C89.0568 128.415 88.6795 128.353 88.3022 128.322C87.9312 128.291 87.5972 128.276 87.3003 128.276ZM87.291 126.003C87.7796 126.003 88.293 126.04 88.8311 126.114C89.3753 126.188 89.8825 126.303 90.3525 126.458C90.8288 126.606 91.2153 126.801 91.5122 127.042C91.8153 127.283 91.9668 127.574 91.9668 127.914C91.9668 128.075 91.9111 128.27 91.7998 128.499C91.6947 128.727 91.5524 128.972 91.373 129.231C91.1937 129.485 90.9989 129.742 90.7886 130.001C90.5783 130.261 90.3649 130.506 90.1484 130.734C89.9382 130.963 89.7464 131.161 89.5732 131.328C89.8577 131.409 90.133 131.458 90.3989 131.477C90.6649 131.495 90.9092 131.504 91.1318 131.504H92.5791V134H91.1411C90.436 134 89.7619 133.92 89.1187 133.759C88.4754 133.592 87.8662 133.354 87.291 133.044C86.8952 133.255 86.4375 133.431 85.918 133.573C85.4046 133.715 84.8758 133.824 84.3315 133.898C83.7873 133.966 83.277 134 82.8008 134H81.335V131.504H82.8101C82.9647 131.504 83.175 131.504 83.4409 131.504C83.7069 131.498 83.9821 131.483 84.2666 131.458C84.5573 131.427 84.8078 131.381 85.0181 131.319C84.8449 131.152 84.6532 130.954 84.4429 130.725C84.2326 130.496 84.0192 130.252 83.8027 129.992C83.5924 129.726 83.3976 129.466 83.2183 129.213C83.0451 128.953 82.9028 128.712 82.7915 128.489C82.6802 128.26 82.6245 128.069 82.6245 127.914C82.6245 127.574 82.7729 127.283 83.0698 127.042C83.3667 126.801 83.7502 126.606 84.2202 126.458C84.6965 126.303 85.2036 126.188 85.7417 126.114C86.286 126.04 86.8024 126.003 87.291 126.003ZM98.2754 128.962C98.0094 128.962 97.7682 129.052 97.5518 129.231C97.3415 129.411 97.1528 129.63 96.9858 129.89C96.825 130.144 96.689 130.391 96.5776 130.632C96.757 130.806 96.9302 130.957 97.0972 131.087C97.2703 131.211 97.4312 131.316 97.5796 131.402C97.8084 131.532 98.0187 131.625 98.2104 131.681C98.4084 131.736 98.5815 131.764 98.73 131.764C99.0825 131.764 99.3361 131.647 99.4907 131.412C99.6515 131.177 99.7319 130.892 99.7319 130.558C99.7319 130.119 99.6021 129.745 99.3423 129.436C99.0825 129.12 98.7269 128.962 98.2754 128.962ZM98.7207 134.213C98.2939 134.213 97.8888 134.152 97.5054 134.028C97.1219 133.904 96.7477 133.731 96.3828 133.508C96.0241 133.286 95.6623 133.029 95.2974 132.738C95.0685 132.979 94.8366 133.196 94.6016 133.388C94.3665 133.573 94.0944 133.722 93.7852 133.833C93.4759 133.944 93.0863 134 92.6162 134H92.208V131.504H92.5698C92.8976 131.504 93.1852 131.387 93.4326 131.152C93.68 130.917 93.9181 130.614 94.147 130.243C94.3758 129.865 94.6108 129.47 94.8521 129.055C95.0994 128.635 95.3747 128.236 95.6777 127.858C95.9808 127.481 96.3364 127.175 96.7446 126.94C97.1528 126.705 97.6383 126.587 98.2012 126.587C98.9619 126.587 99.6206 126.77 100.177 127.135C100.74 127.493 101.173 127.97 101.476 128.563C101.779 129.157 101.931 129.807 101.931 130.512C101.931 131.229 101.81 131.866 101.569 132.423C101.328 132.979 100.969 133.419 100.493 133.74C100.023 134.056 99.432 134.213 98.7207 134.213Z" fill="#E6E6E8"/>
<path d="M4.59352 164.56L3.76878 164.53L3.20913 164.265L2.62003 164.088L2.29602 163.705L1.97202 163.352L1.8542 162.616L2.00147 162.115L1.94256 161.585V161.261L2.06038 160.642L2.03093 160.377L1.67747 160.141L1.29455 159.906L1.02946 159.7L0.970545 159.14L0.852725 158.728L1.05891 158.256L1.02946 157.726L1.20619 157.461L1.64801 156.96L2.06038 156.607L2.70839 156.489L2.94404 156.342L3.59205 155.959L3.94551 155.193L3.97496 154.839L4.06333 154.398L4.29897 153.867L4.44624 153.367L4.56407 152.954L4.59352 152.601L4.97644 152.159L4.85862 151.717L5.18262 151.334V150.804L5.27099 150.421L5.47717 150.009L5.71281 149.655L5.86009 149.243L6.12518 148.801L6.21355 148.124L6.41974 147.888L6.56701 147.27L6.83211 146.946L7.0972 146.268L7.24448 145.767L7.59794 145.414L7.65685 144.913L8.18704 144.471L8.27541 144.295L8.83505 144.059L9.21797 143.912H9.60088L10.2784 143.764L10.7202 143.941L11.1031 143.971L11.486 144.236L11.8395 144.501L12.3402 145.031L12.6348 145.532L12.8409 145.944L13.1649 146.533L13.3417 147.034L13.3711 147.358L13.5184 147.8L13.6657 148.212L13.8719 148.566L14.0191 149.096L13.9897 149.479L14.4904 149.95L14.3137 150.303L14.6672 150.834L14.6082 151.246L15.0206 151.511V151.923L15.2563 152.365L15.3152 152.63L15.4624 153.219L15.7275 153.661L15.6981 154.103L15.7865 154.486L16.1988 154.898L16.3166 155.576L16.4639 156.018L16.6406 156.342L16.6701 156.784L16.7879 157.137L16.729 157.608L17.053 158.021L17.2298 158.462V158.875L17.6127 159.346L17.701 159.729L17.7305 160.23L17.5538 160.613L17.7894 161.113L18.025 161.791L18.1134 162.38L17.9072 162.822L18.025 163.057L17.7894 163.617L17.2592 163.882L16.8174 164.177L16.081 164.265L15.7275 164.324L15.2563 164.059L14.5493 163.912L13.7835 163.529L13.5479 162.881L13.43 162.527L13.2239 162.027L13.1355 161.408L12.9588 160.819L12.5169 160.613H12.1635H11.7217L11.3682 160.554L11.1325 160.524L10.6613 160.554L10.3078 160.642L10.0133 160.583L9.74816 160.642L9.27688 160.613L9.01178 160.642L8.59941 160.613H8.33432H7.89249L7.39175 160.672L7.00884 161.054L6.92047 161.585L6.97938 162.144L6.65538 162.468L6.56701 162.851L6.243 163.411L6.03682 163.794L5.3299 164.265L4.91753 164.324L4.59352 164.56ZM8.89396 156.459L9.15906 156.371L9.45361 156.401L9.7187 156.371L9.95435 156.283L10.3962 156.312L10.7791 156.194L11.0442 156.224L11.3093 156.106L11.6333 155.959L11.5155 155.576L11.486 155.281L11.4566 155.046L11.3682 154.722L11.3093 154.457L11.2798 154.074L11.1915 153.867L10.9853 153.602L11.0147 153.426L10.9853 153.131L10.9264 152.925L10.8969 152.63L10.7791 152.454L10.5729 152.159L10.514 152.012L10.3373 151.747L10.2194 151.482L10.19 151.246L10.2194 151.04L9.92489 150.627L9.80707 150.951L9.65979 151.158L9.48306 151.393L9.42415 151.629L9.24742 151.923V152.13L9.1296 152.483L8.98233 152.837L8.95287 153.102L8.83505 153.308L8.77614 153.573L8.65832 153.867L8.56996 154.191V154.515L8.5405 154.839V155.163L8.39323 155.487V155.753L8.45214 156.077L8.5405 156.371L8.89396 156.459ZM23.5299 164.53L23.2943 164.412L22.499 164.265L21.7332 164.088L21.3208 163.823L21.0557 163.558L20.7022 163.293L20.4371 162.91L20.172 162.233L19.9069 161.85L19.9659 161.378L19.7302 161.172L19.7891 160.583L19.4357 160.23L19.2884 159.788L19.5535 159.346L19.2884 158.58L19.3473 157.991L19.4946 157.52L19.3178 157.108L19.4062 156.106L19.524 155.664L19.6124 155.163L19.6713 154.398L19.524 154.103L19.6124 153.661L19.7008 153.308L19.7597 152.748L19.5535 152.395L19.7302 151.599L19.6418 151.069L19.7891 150.686L19.8186 150.303L19.9069 149.773L19.524 149.42L19.5535 149.007L19.7302 148.536L19.6713 148.006L19.848 147.711L19.6713 147.093L19.8186 146.651L19.7597 146.297L19.7008 145.532L20.0248 144.943L19.9659 144.501L20.0542 144.029L20.3782 143.647L20.6433 143.175L21.0262 142.881L21.6153 142.94L22.5579 142.851L22.9114 142.822L23.5299 142.999L23.9128 143.381L24.2368 143.558L24.2957 144.177L24.5019 144.501L24.6198 145.001L24.4725 145.679L24.7081 146.445L24.3841 147.063L24.5903 147.594L24.4725 148.271L24.2074 148.654L24.3252 149.214L24.0896 149.714L24.3547 150.244L24.0601 150.686L24.1779 151.099L24.0601 151.393L24.0307 151.835L24.119 152.601L23.9423 153.219L23.9128 153.75L23.9423 154.162L24.1485 154.574L24.1779 154.928L24.0012 155.546L23.8834 155.9L24.0896 156.401L23.8539 156.784L23.9717 157.402L24.0601 157.873L24.0307 158.345V158.845L24.1779 159.199L24.3547 159.493L24.7081 159.641L24.9438 159.817L25.3856 160.2L25.4445 160.495L25.9747 160.819L26.2398 161.231L26.3871 161.526L26.4754 162.115L26.2692 162.91L26.0631 163.676L25.5329 164.059L24.7376 164.324L24.443 164.53H23.5299ZM36.8807 156.931L36.9985 157.402L36.4094 158.021L36.2326 158.345L35.0839 158.58L34.4948 158.551L33.8762 158.639L33.405 158.58L32.7864 158.492L32.05 158.639L31.1958 158.521L30.7835 158.698L30.4595 158.551L29.458 158.816L28.7511 158.875L27.9852 158.728L27.5139 158.551L27.0721 158.256L26.7481 158.109L26.5714 157.726L26.2474 157.108L26.483 156.489L26.3947 155.929L26.5714 155.576L26.7481 154.898L27.3667 154.839L27.6612 154.545L28.2209 154.398L29.2223 154.427L29.9293 154.368L30.3711 154.398L31.3431 154.457L31.8144 154.28L32.2857 154.368H33.3461L33.7584 154.162L34.1413 154.339L34.8777 154.044L35.4374 154.191L36.0854 154.427L36.321 154.604L36.4683 154.839L36.645 155.311L36.8807 155.988V156.489V156.931ZM45.6189 164.589L45.1771 164.412L44.4996 164.383L44.1462 164.236L43.4098 164.059L42.7323 163.764L42.2905 163.499L41.9076 163.293L41.6719 163.028L41.1418 162.675L40.965 162.351L40.317 161.791L40.1403 161.408L39.993 161.172L39.7574 160.73L39.345 160.141L39.1094 159.67L39.1388 159.346L38.697 158.551L38.5497 158.197L38.7559 157.638L38.4613 157.225V156.754L38.3435 156.047L38.1668 155.37L38.2257 154.545L38.4908 153.632L38.373 153.072L38.5497 152.483L38.4613 151.982L38.6381 151.423L38.4613 151.01L38.8737 150.568L38.7264 150.127L38.9621 149.626L39.4628 148.801L39.5806 148.536L39.7279 147.976L39.9341 147.77L40.2581 147.417L40.2286 146.946L40.641 146.68L40.9356 146.239L41.5541 145.738L41.8781 145.473L42.261 145.06L42.4967 144.736L42.9974 144.648L43.2625 144.501L43.94 144.236L44.6764 144.059L45.2949 143.912L45.7662 143.823L46.2669 143.912L46.9444 143.735L47.4746 143.823L47.8281 143.941L48.3582 144.059L48.9179 144.206L49.4775 144.324L49.831 144.56L50.2434 144.736L50.8914 145.208L51.1859 145.679L51.4216 145.885L51.4805 146.327L51.5394 146.916L51.3332 147.299L51.127 147.505L50.7736 147.888L50.5968 148.035L50.0961 148.124L49.6837 148.183L49.3008 148.3L48.859 148.418L48.4761 148.536L47.9164 148.418L47.5041 148.654L47.1211 148.566L46.7382 148.654L46.2375 148.566L45.9724 148.624L45.7073 148.654L45.3833 148.801L44.9709 148.772L44.7647 148.919L44.4702 149.096L44.264 149.243L44.0284 149.685L43.7633 149.891L43.7338 150.303L43.5571 150.598L43.616 150.981L43.4392 151.334L43.3509 151.717L43.2036 152.13L43.2625 152.837L42.9091 153.219L43.1447 154.015L43.1152 154.545L43.0858 154.957L42.9974 155.517L43.2331 156.018L43.0858 156.342L43.1742 156.813L43.4687 157.373L43.3214 157.756L43.4982 158.08L43.6454 158.345L43.7633 158.61L43.9105 159.022L44.264 159.376L44.6175 159.67L44.8531 159.847L45.0593 160.082L45.6484 159.994L46.1786 160.171L46.7971 160.053L47.4746 159.994L47.8575 159.906L48.2404 159.817L48.6823 159.523L49.183 159.317L49.4481 159.081L49.4775 158.757L49.3892 158.521L49.4481 158.08L49.3303 157.726L49.2124 157.461L49.2714 157.108L49.0652 156.901L48.7117 156.636L48.5939 156.459L48.0342 156.224L47.4451 156.283L47.0917 156.253L46.5909 156.018L46.208 155.635L45.9724 155.458L45.5011 154.839L45.2949 154.162L45.4717 153.779L45.5011 153.219L45.5895 152.689L46.0313 152.454L46.208 152.277L46.9149 152.1L47.2095 151.923H48.0342L48.4466 151.865L48.8295 151.835L49.2419 152.041L49.8899 151.923L50.2728 151.894L50.7147 151.953L51.3627 151.982L52.1285 151.894L52.7471 152.159L53.1594 152.483L53.6602 152.925L54.1314 153.661L53.9253 154.339L54.0431 154.633L54.0136 155.193L53.7485 155.782L53.6602 156.636L53.5718 157.225L53.6602 157.697L53.6013 158.05L53.6307 158.669L53.6602 159.258L53.8663 159.7L53.7191 160.259L53.6307 160.878L53.7191 161.644L53.4834 161.997L53.0711 162.527L52.8649 162.851L51.9223 163.234L51.3627 163.381L50.9798 163.735L50.4496 163.882L49.8605 164.118L49.2419 164.177L48.9179 164.353H48.3288L47.5041 164.56L46.8266 164.471L45.6189 164.589ZM56.6731 163.764L56.3785 163.411L56.1724 163.116L55.8484 162.763L55.8778 162.144V161.496L55.9367 160.996L55.9073 160.613L55.9956 160.2L55.9662 159.788L55.9956 159.346L55.9367 158.875L56.0545 158.404L55.8189 157.962L55.9956 157.549L56.1429 157.078L56.0251 156.607L56.0545 156.165V155.753L56.0251 155.311L56.0545 154.839L56.1134 154.457V153.867V153.602L56.084 153.013L56.0545 152.778L56.084 152.189L56.1429 151.717L56.0251 151.246L56.2313 150.804L55.9662 150.51L56.0545 150.127L56.084 149.655L56.2313 149.155L56.084 148.772L55.9956 148.389L55.9662 147.8L56.1134 147.476L56.084 146.946L56.0545 146.474L56.084 145.738V145.325L56.2018 144.825L56.3196 144.56L56.6731 144.206L56.6436 143.705L56.9676 143.293L57.4389 143.057L57.6451 142.94L58.352 142.881L59.1473 142.969L59.4124 143.057L59.9426 143.116L60.0899 143.44L60.5906 144L60.7379 144.236L60.7674 144.736L61.0619 145.208L61.1503 145.443V145.915L60.9441 146.798L61.0619 147.152L60.8263 147.623L60.9441 148.124L61.003 148.654L60.9735 149.007L60.9441 149.39L61.2681 149.272L61.7688 149.125L62.0339 149.007L62.7408 148.948L63.0059 148.772L63.8601 148.713L64.3609 148.772L65.0678 148.713L65.5685 148.89L66.2165 149.096H66.4816L67.0118 149.42L67.2475 149.626L67.6598 149.862L67.8071 150.215L68.2489 150.657L68.3668 150.951L68.6319 151.423L68.7202 151.688L68.9264 152.189L69.0148 152.63L69.1031 152.984L69.2799 153.396L69.2504 153.838L69.3977 154.309L69.4271 154.898L69.2799 155.311L69.1915 155.988L69.3977 156.666L69.3093 157.078L69.4271 157.461V157.932L69.3388 158.315V159.228L69.4861 159.493L69.3682 160.024L69.6628 160.554V161.025V161.703L69.5155 162.144L69.3977 162.527L69.4566 162.969L69.2504 163.499L68.9264 163.882L68.5435 164.147L68.0722 164.383L67.6893 164.471L67.1296 164.619L66.4227 164.471L66.0987 164.412L65.6864 164.265L65.2445 163.912L65.1562 163.411L65.0678 163.205L64.6849 162.704L64.7143 162.292L64.6849 161.909L64.5081 161.526L64.5671 161.054L64.4492 160.524L64.626 159.994L64.6849 159.258L64.6554 158.934L64.5376 158.286L64.5081 158.05L64.7732 157.49L64.6554 157.019L64.6849 156.371L64.7438 155.959L64.6849 155.517L64.7143 154.751L64.6849 154.398V154.074L64.4198 153.602L64.2431 153.161L64.0958 152.866L63.4772 152.748L62.947 152.837L62.4168 153.072L62.0928 153.367L62.0634 153.455L61.7394 153.897L61.4448 154.309L61.2386 154.928L61.0914 155.458L61.1503 155.782L60.8263 156.224L60.8852 156.548L60.9441 157.137L60.8557 157.49L61.003 158.138V158.521L60.9735 159.081L61.0324 159.523L60.9441 160.318V160.583L61.0324 161.054L60.5906 161.526L60.5023 161.968L60.355 162.233L60.2077 162.675L59.8542 163.028L59.707 163.205L59.3241 163.558L58.9411 163.823L58.5877 164.118L58.1164 164.147L57.8513 164.118H57.6451L57.3211 164L56.6731 163.764ZM78.0593 164.471L77.3229 164.53L76.3804 164.619L75.8207 164.442L75.1433 164.471L74.9076 164.324L74.2891 164.118L73.9356 163.794L73.4349 163.381L72.993 162.91L72.6396 162.292L72.2567 162.056L72.1978 161.378L71.8443 161.025L71.7559 160.465L71.697 160.053L71.6381 159.434L71.6087 158.875V158.404L71.5203 157.932L71.4319 157.343L71.4025 156.401L71.5203 155.929L71.4908 155.635V155.016L71.697 154.339L71.8148 153.867V153.337L72.1683 152.954L72.345 152.542L72.5512 152.159L72.6985 151.747L72.9047 151.452L73.3171 151.01L73.4349 150.657L73.7883 150.274L74.2891 150.009L74.3185 149.773L74.8487 149.538L75.2611 149.361L75.9386 149.037L76.5571 149.007L77.3229 148.772H78.3539L79.0903 148.654L79.7383 148.713L80.2685 148.919H80.563L81.0343 149.007H81.4761L81.8296 149.214L82.4481 149.184L82.9783 149.538L83.4496 149.832L83.9209 150.038L84.5394 150.451L84.5689 151.069L84.7751 151.364L85.0107 151.835L84.9518 152.601L84.8634 153.337L84.9224 153.926L84.9813 154.28L84.9224 154.781L84.7162 155.399L84.7751 155.988L84.6573 156.253L84.9224 156.842L84.7162 157.844L84.7456 158.227L84.9813 158.757L84.8634 159.641L84.9224 160.082V160.642L85.1285 160.907L84.8929 161.703L84.9224 162.115L85.0107 162.616L84.7751 162.91L84.6278 163.234L84.2154 163.735L83.862 164.029L83.538 164.295H82.9783L82.3598 164.206L82.1536 163.853L81.6823 163.146L81.2405 162.822L80.9165 162.94L80.4452 163.146L79.8561 163.588L79.5615 163.971L78.8252 164.236L78.4717 164.383L78.0593 164.471ZM77.5586 160.289L78.0299 160.23L78.295 160.259L78.6484 160.141L78.8841 159.906L79.1492 159.7L79.3553 159.582L79.6499 159.376L79.7677 159.052L79.8855 158.786L80.0623 158.374L80.1506 158.138V157.432L80.0328 157.196L80.0623 156.784V156.342L80.0917 156.018L80.1212 155.664L80.2095 155.399L80.2685 155.046L80.3274 154.722L80.2095 154.515L80.3568 154.044L80.239 153.75L80.2979 153.455L80.0328 153.013L79.6204 152.837L79.2964 152.689L78.9135 152.719L78.3833 152.66L78.0004 152.807L77.6175 152.925L77.3229 153.161L76.9695 153.308L76.7928 153.602L76.6749 153.897L76.4393 154.162L76.4098 154.663L76.3509 154.987L76.292 155.311V155.635L76.2037 155.87L76.0858 156.312L76.2037 156.695L76.0858 157.078L76.2037 157.52L76.2331 157.932V158.256L76.1153 158.698L76.1742 159.052L76.3215 159.258L76.3804 159.523L76.4982 159.7L76.7928 159.994L76.94 160.112L77.3524 160.171L77.5586 160.289ZM88.4986 170.421L87.9684 170.156L87.5266 169.95L87.3499 169.773L87.1437 169.361L87.0259 168.948L87.1731 168.3L87.4088 167.976L87.4971 167.623L87.6739 167.27L87.9979 166.651L88.2335 166.297L88.4986 166.003L88.8815 165.767L89.235 165.473L89.5885 165.178L90.0597 165.031L90.5016 164.53L90.5605 164.147L90.5016 163.735L90.5899 163.352L90.4427 162.999L90.3837 162.704L90.3248 162.351L90.0892 162.027L89.7652 161.585L89.5001 161.084L89.5296 160.76L89.3234 160.259L89.2055 159.935L89.1172 159.434L88.911 159.022L88.7048 158.639L88.5281 158.256L88.3219 157.932L88.263 157.432L88.1746 157.049L87.7917 156.636L87.615 156.283L87.5561 155.929L87.5266 155.399L87.3499 154.957L87.1731 154.633L87.0848 154.162L86.8786 153.809L86.8197 153.337L86.7608 152.925L86.643 152.483L86.4957 152.012L86.4368 151.57L86.1422 150.775L86.4368 150.333L86.3779 150.009L86.7019 149.832L87.2026 149.626L87.5855 149.42L87.9979 149.243L88.1452 149.361L88.4103 149.538L88.7932 149.685L89.0877 149.832L89.7946 149.891L89.8241 150.097L90.1776 150.539L90.3543 150.657L90.5899 151.01L90.7961 151.364L91.179 151.865L91.3852 152.247L91.503 152.542L91.5325 153.102L91.6503 153.514V154.015L91.7681 154.309L92.0627 154.839L92.1511 155.222L92.0627 155.605L92.2983 156.047L92.3278 156.548L92.6812 156.842L92.7107 157.255L92.8874 157.667L93.3882 157.903L93.5354 157.343L93.7416 156.784V156.459L94.0362 156.077L93.9773 155.576L94.1245 155.281L94.0951 154.839L94.2718 154.368L94.4191 153.867L94.3896 153.367L94.6547 152.601L94.7431 152.277L94.8609 151.894L94.9198 151.599L95.0671 151.04L95.5089 150.834L95.6857 150.48L95.8918 150.274L96.2748 150.097L96.3631 149.714L96.8933 149.685L97.3351 149.538L97.7475 149.243L97.8359 149.155L98.2777 149.302L98.5134 149.361L98.9552 149.596L99.2792 149.92L99.6326 150.244L99.8094 150.745L99.6621 151.364L99.6326 152.041L99.4559 152.454L99.3381 152.954V153.19L99.1614 153.72V154.074L98.8668 154.457L98.8374 155.075L98.8668 155.429L98.6017 155.929L98.3661 156.253V156.636L98.3366 157.196L98.1599 157.432L97.9537 157.844L97.8653 158.286L97.6592 158.698L97.3646 159.081L97.2173 159.464L97.0995 159.935L97.0406 160.318L96.8639 160.848L96.7166 161.202L96.6282 161.644L96.2453 161.968V162.409L96.0686 162.969L95.774 163.205L95.5973 163.676L95.3911 164.236L95.0082 164.677L94.9787 165.325L94.7136 165.591L94.6253 166.062L94.3013 166.504L93.9773 166.887L93.9184 167.122L93.5944 167.652L93.3882 167.888L92.9463 168.389L92.7107 168.654L92.4751 168.978L92.0038 169.096L91.7681 169.39L91.4147 169.744L90.9434 169.92L90.4132 170.097L90.1187 170.274H89.7652L89.3234 170.303L88.4986 170.421ZM107.313 164.471L106.577 164.53L105.634 164.619L105.074 164.442L104.397 164.471L104.161 164.324L103.543 164.118L103.189 163.794L102.689 163.381L102.247 162.91L101.893 162.292L101.51 162.056L101.451 161.378L101.098 161.025L101.01 160.465L100.951 160.053L100.892 159.434L100.862 158.875V158.404L100.774 157.932L100.686 157.343L100.656 156.401L100.774 155.929L100.745 155.635V155.016L100.951 154.339L101.069 153.867V153.337L101.422 152.954L101.599 152.542L101.805 152.159L101.952 151.747L102.158 151.452L102.571 151.01L102.689 150.657L103.042 150.274L103.543 150.009L103.572 149.773L104.102 149.538L104.515 149.361L105.192 149.037L105.811 149.007L106.577 148.772H107.608L108.344 148.654L108.992 148.713L109.522 148.919H109.817L110.288 149.007H110.73L111.083 149.214L111.702 149.184L112.232 149.538L112.703 149.832L113.175 150.038L113.793 150.451L113.823 151.069L114.029 151.364L114.264 151.835L114.206 152.601L114.117 153.337L114.176 153.926L114.235 154.28L114.176 154.781L113.97 155.399L114.029 155.988L113.911 156.253L114.176 156.842L113.97 157.844L113.999 158.227L114.235 158.757L114.117 159.641L114.176 160.082V160.642L114.382 160.907L114.147 161.703L114.176 162.115L114.264 162.616L114.029 162.91L113.882 163.234L113.469 163.735L113.116 164.029L112.792 164.295H112.232L111.613 164.206L111.407 163.853L110.936 163.146L110.494 162.822L110.17 162.94L109.699 163.146L109.11 163.588L108.815 163.971L108.079 164.236L107.725 164.383L107.313 164.471ZM106.812 160.289L107.284 160.23L107.549 160.259L107.902 160.141L108.138 159.906L108.403 159.7L108.609 159.582L108.904 159.376L109.021 159.052L109.139 158.786L109.316 158.374L109.404 158.138V157.432L109.287 157.196L109.316 156.784V156.342L109.345 156.018L109.375 155.664L109.463 155.399L109.522 155.046L109.581 154.722L109.463 154.515L109.611 154.044L109.493 153.75L109.552 153.455L109.287 153.013L108.874 152.837L108.55 152.689L108.167 152.719L107.637 152.66L107.254 152.807L106.871 152.925L106.577 153.161L106.223 153.308L106.046 153.602L105.929 153.897L105.693 154.162L105.664 154.663L105.605 154.987L105.546 155.311V155.635L105.457 155.87L105.34 156.312L105.457 156.695L105.34 157.078L105.457 157.52L105.487 157.932V158.256L105.369 158.698L105.428 159.052L105.575 159.258L105.634 159.523L105.752 159.7L106.046 159.994L106.194 160.112L106.606 160.171L106.812 160.289Z" fill="#E6E6E8"/>
</svg>
